<svg width="2000" height="2000" viewBox="0 0 2000 2000" fill="none" xmlns="http://www.w3.org/2000/svg">
<path fill-rule="evenodd" clip-rule="evenodd" d="M1058.19 396.337L420.12 806.195L507.054 1407.82H1510.41L1635.49 890.556L1058.19 396.337Z" fill="#E7ECFF"/>
<path fill-rule="evenodd" clip-rule="evenodd" d="M867.875 828.405C867.875 823.817 866.104 819.479 862.873 816.225C859.641 813.013 855.258 811.219 850.698 811.219C793.325 811.219 608.678 811.219 551.305 811.219C546.745 811.219 542.363 813.013 539.131 816.225C535.899 819.479 534.085 823.817 534.085 828.405C534.085 869.995 534.085 975.868 534.085 1017.46C534.085 1022 535.899 1026.38 539.131 1029.6C542.363 1032.85 546.745 1034.64 551.305 1034.64C608.678 1034.64 793.325 1034.64 850.698 1034.64C855.258 1034.64 859.641 1032.85 862.873 1029.6C866.104 1026.38 867.875 1022 867.875 1017.46C867.875 975.868 867.875 869.995 867.875 828.405Z" fill="#FF7A3D"/>
<path fill-rule="evenodd" clip-rule="evenodd" d="M836.682 698.962C836.682 691.077 830.298 684.683 822.396 684.683C777.681 684.683 641.072 684.683 596.358 684.683C588.455 684.683 582.039 691.077 582.039 698.962C582.039 739.11 582.039 849.794 582.039 849.794C582.039 849.794 654.412 904.366 686.259 928.407C694.972 934.994 706.996 934.994 715.743 928.407C750.866 901.914 836.682 837.196 836.682 837.196C836.682 837.196 836.682 736.899 836.682 698.962Z" fill="#000045"/>
<path fill-rule="evenodd" clip-rule="evenodd" d="M828.321 690.206C828.321 682.32 821.938 675.926 814.035 675.926H587.997C580.095 675.926 573.679 682.32 573.679 690.206C573.679 730.353 573.679 841.037 573.679 841.037C573.679 841.037 652.739 900.658 686.275 925.949C694.988 932.536 707.01 932.536 715.724 925.949C749.26 900.658 828.321 841.037 828.321 841.037C828.321 841.037 828.321 730.353 828.321 690.206Z" fill="white"/>
<path fill-rule="evenodd" clip-rule="evenodd" d="M538.257 816.9C538.257 816.9 644.949 897.377 684.916 927.463C694.413 934.648 707.574 934.648 717.072 927.463C756.99 897.377 863.729 816.9 863.729 816.9C864.597 816.201 864.79 814.904 864.115 814.006C863.44 813.108 862.138 812.908 861.222 813.606C861.222 813.606 754.531 894.085 714.612 924.17C706.561 930.257 695.424 930.257 687.373 924.17C647.455 894.085 540.765 813.606 540.765 813.606C539.849 812.908 538.548 813.108 537.873 814.006C537.198 814.904 537.341 816.201 538.257 816.9Z" fill="white"/>
<path fill-rule="evenodd" clip-rule="evenodd" d="M614.178 727.885H704.444C705.595 727.885 706.524 726.955 706.524 725.804C706.524 724.697 705.595 723.768 704.444 723.768H614.178C613.071 723.768 612.142 724.697 612.142 725.804C612.142 726.955 613.071 727.885 614.178 727.885Z" fill="#000045"/>
<path fill-rule="evenodd" clip-rule="evenodd" d="M614.05 764.201H787.691C788.883 764.201 789.82 763.265 789.82 762.072C789.82 760.965 788.883 760.028 787.691 760.028H614.05C612.943 760.028 612.008 760.965 612.008 762.072C612.008 763.265 612.943 764.201 614.05 764.201Z" fill="#000045"/>
<path fill-rule="evenodd" clip-rule="evenodd" d="M614.05 800.512H787.691C788.883 800.512 789.82 799.576 789.82 798.384C789.82 797.276 788.883 796.339 787.691 796.339H614.05C612.943 796.339 612.008 797.276 612.008 798.384C612.008 799.576 612.943 800.512 614.05 800.512Z" fill="#000045"/>
<path fill-rule="evenodd" clip-rule="evenodd" d="M614.05 836.773H787.691C788.883 836.773 789.82 835.836 789.82 834.644C789.82 833.537 788.883 832.6 787.691 832.6H614.05C612.943 832.6 612.008 833.537 612.008 834.644C612.008 835.836 612.943 836.773 614.05 836.773Z" fill="#000045"/>
<path fill-rule="evenodd" clip-rule="evenodd" d="M564.288 662.368L507.855 605.934C507.05 605.129 505.744 605.129 504.939 605.934C504.135 606.738 504.135 608.044 504.94 608.849L561.373 665.283C562.179 666.088 563.485 666.088 564.289 665.283C565.094 664.479 565.094 663.173 564.288 662.368Z" fill="#3D61FF"/>
<path fill-rule="evenodd" clip-rule="evenodd" d="M588.653 637.417L577.492 595.762C577.198 594.665 576.067 594.013 574.968 594.307C573.869 594.601 573.216 595.732 573.51 596.829L584.671 638.484C584.966 639.584 586.096 640.234 587.195 639.939C588.294 639.645 588.948 638.517 588.653 637.417Z" fill="#3D61FF"/>
<path fill-rule="evenodd" clip-rule="evenodd" d="M537.488 685.665L492.474 673.604C491.378 673.31 490.247 673.963 489.953 675.062C489.658 676.161 490.311 677.292 491.407 677.586L536.421 689.648C537.518 689.941 538.653 689.289 538.947 688.19C539.242 687.091 538.585 685.959 537.488 685.665Z" fill="#3D61FF"/>
<path fill-rule="evenodd" clip-rule="evenodd" d="M1157.68 776.339C1161.84 776.87 1166.01 777.224 1170.12 777.446C1171.27 777.534 1172.25 776.649 1172.29 775.498C1172.34 774.347 1171.5 773.418 1170.35 773.329C1166.32 773.152 1162.29 772.753 1158.17 772.267C1157.06 772.089 1156 772.886 1155.87 774.037C1155.74 775.144 1156.53 776.206 1157.68 776.339ZM1195.14 776.871C1199.34 776.428 1203.5 775.853 1207.53 775.1C1208.68 774.879 1209.44 773.816 1209.21 772.709C1208.99 771.602 1207.93 770.85 1206.82 771.027C1202.84 771.779 1198.81 772.355 1194.74 772.753C1193.59 772.842 1192.79 773.86 1192.88 775.011C1193.01 776.118 1194.03 776.959 1195.14 776.871ZM1121.21 767.662C1125.19 769.079 1129.17 770.319 1133.16 771.425C1134.22 771.691 1135.37 771.071 1135.68 769.964C1135.99 768.857 1135.33 767.751 1134.22 767.441C1130.37 766.379 1126.47 765.139 1122.58 763.766C1121.52 763.412 1120.32 763.988 1119.97 765.05C1119.57 766.113 1120.14 767.308 1121.21 767.662ZM1231.75 768.725C1235.73 767.353 1239.63 765.803 1243.43 764.165C1244.45 763.678 1244.94 762.483 1244.5 761.421C1244.01 760.402 1242.81 759.915 1241.75 760.358C1238.08 761.996 1234.27 763.501 1230.42 764.829C1229.31 765.227 1228.78 766.378 1229.14 767.485C1229.53 768.548 1230.68 769.123 1231.75 768.725ZM1087.21 752.035C1090.88 754.16 1094.56 756.108 1098.23 757.923C1099.25 758.454 1100.44 758.056 1100.98 757.038C1101.46 756.02 1101.06 754.78 1100.05 754.248C1096.46 752.478 1092.87 750.53 1089.24 748.493C1088.27 747.918 1086.99 748.273 1086.45 749.247C1085.88 750.22 1086.23 751.504 1087.21 752.035ZM1265.48 752.301C1269.02 749.999 1272.43 747.564 1275.71 745.041C1276.59 744.377 1276.77 743.093 1276.1 742.163C1275.4 741.278 1274.11 741.101 1273.18 741.809C1270 744.244 1266.68 746.59 1263.22 748.804C1262.29 749.424 1261.98 750.707 1262.6 751.681C1263.22 752.611 1264.51 752.921 1265.48 752.301ZM1056.22 731.45C1059.1 733.353 1061.97 735.39 1064.85 737.515C1065.34 737.825 1065.78 738.179 1066.27 738.489C1067.2 739.153 1068.48 738.976 1069.14 738.046C1069.81 737.116 1069.59 735.833 1068.66 735.169C1068.22 734.814 1067.77 734.505 1067.33 734.151C1064.36 731.982 1061.4 729.945 1058.48 728.041C1057.5 727.377 1056.22 727.643 1055.6 728.617C1054.98 729.547 1055.24 730.83 1056.22 731.45ZM1294.21 728.175C1297.09 725.076 1299.79 721.888 1302.36 718.612C1303.02 717.726 1302.84 716.398 1301.96 715.734C1301.07 715.026 1299.74 715.203 1299.08 716.089C1296.6 719.276 1293.99 722.375 1291.2 725.385C1290.45 726.226 1290.49 727.51 1291.33 728.307C1292.13 729.059 1293.46 729.016 1294.21 728.175ZM883.214 726.536C883.214 726.536 886.932 723.969 893.705 720.516C894.679 720.029 895.122 718.789 894.591 717.771C894.06 716.753 892.821 716.354 891.803 716.841C884.764 720.471 880.867 723.172 880.867 723.172C879.938 723.791 879.672 725.075 880.336 726.005C881 726.979 882.284 727.2 883.214 726.536ZM1023.77 714.406C1027.49 715.867 1031.21 717.55 1034.97 719.365C1035.99 719.852 1037.23 719.408 1037.71 718.39C1038.2 717.372 1037.8 716.133 1036.79 715.646C1032.93 713.787 1029.08 712.104 1025.32 710.599C1024.26 710.156 1023.06 710.687 1022.66 711.75C1022.22 712.768 1022.75 714.008 1023.77 714.406ZM916.239 711.219C919.914 710.024 923.81 708.873 927.971 707.855C929.078 707.589 929.741 706.438 929.475 705.331C929.21 704.224 928.06 703.561 926.997 703.826C922.703 704.889 918.718 706.084 914.955 707.279C913.848 707.633 913.272 708.828 913.627 709.891C913.981 710.998 915.133 711.573 916.239 711.219ZM988.532 704.8C992.471 705.375 996.455 706.128 1000.53 707.102C1001.63 707.367 1002.74 706.659 1003.01 705.552C1003.23 704.445 1002.56 703.339 1001.46 703.073C997.297 702.099 993.179 701.347 989.151 700.728C988 700.55 986.981 701.347 986.804 702.453C986.627 703.604 987.425 704.623 988.532 704.8ZM952.009 703.781C955.949 703.427 960.021 703.207 964.227 703.162C965.333 703.118 966.264 702.188 966.264 701.081C966.219 699.93 965.29 699.001 964.183 699.045C959.889 699.089 955.683 699.311 951.655 699.665C950.504 699.753 949.663 700.771 949.796 701.922C949.884 703.029 950.903 703.87 952.009 703.781Z" fill="#AB3DFF"/>
<path fill-rule="evenodd" clip-rule="evenodd" d="M898.731 1370.38C902.76 1370.6 906.92 1370.74 911.17 1370.78C912.321 1370.78 913.252 1369.9 913.252 1368.74C913.252 1367.59 912.322 1366.66 911.215 1366.66C907.009 1366.62 902.937 1366.49 898.953 1366.26C897.802 1366.22 896.827 1367.11 896.783 1368.21C896.694 1369.36 897.58 1370.34 898.731 1370.38ZM936.051 1369.94C940.124 1369.63 944.241 1369.23 948.446 1368.74C949.597 1368.61 950.393 1367.59 950.26 1366.44C950.127 1365.34 949.11 1364.49 947.959 1364.63C943.841 1365.11 939.768 1365.51 935.74 1365.82C934.589 1365.91 933.749 1366.88 933.837 1368.04C933.926 1369.14 934.944 1370.03 936.051 1369.94ZM861.633 1365.6C865.618 1366.44 869.735 1367.2 873.941 1367.86C875.047 1368.04 876.11 1367.24 876.287 1366.13C876.464 1364.98 875.666 1363.96 874.56 1363.79C870.398 1363.12 866.414 1362.41 862.474 1361.57C861.367 1361.35 860.26 1362.06 860.039 1363.17C859.818 1364.32 860.527 1365.38 861.633 1365.6ZM973.059 1365.03C977.043 1364.27 981.116 1363.43 985.233 1362.5C986.34 1362.28 987.048 1361.17 986.782 1360.07C986.561 1358.96 985.454 1358.25 984.348 1358.47C980.275 1359.4 976.246 1360.2 972.262 1360.95C971.155 1361.17 970.403 1362.24 970.624 1363.34C970.845 1364.49 971.908 1365.2 973.059 1365.03ZM825.775 1354.93C829.582 1356.44 833.479 1357.85 837.552 1359.18C838.614 1359.54 839.764 1358.96 840.118 1357.85C840.472 1356.79 839.897 1355.64 838.835 1355.29C834.851 1353.96 830.999 1352.59 827.325 1351.08C826.262 1350.68 825.066 1351.21 824.624 1352.28C824.225 1353.34 824.713 1354.53 825.775 1354.93ZM1009.32 1356.57C1013.26 1355.51 1017.24 1354.45 1021.27 1353.34C1022.38 1353.03 1023.04 1351.92 1022.73 1350.82C1022.42 1349.71 1021.27 1349.04 1020.21 1349.35C1016.18 1350.46 1012.19 1351.52 1008.25 1352.54C1007.15 1352.85 1006.48 1354 1006.79 1355.07C1007.1 1356.17 1008.21 1356.84 1009.32 1356.57ZM1045.13 1346.65C1049.03 1345.55 1053.01 1344.4 1056.99 1343.24C1058.1 1342.89 1058.72 1341.78 1058.41 1340.68C1058.1 1339.57 1056.95 1338.95 1055.84 1339.26C1051.86 1340.41 1047.92 1341.56 1043.98 1342.71C1042.87 1343.02 1042.25 1344.13 1042.56 1345.24C1042.87 1346.34 1044.02 1346.96 1045.13 1346.65ZM792.397 1338.07C795.806 1340.23 799.39 1342.32 803.153 1344.4C804.171 1344.93 805.411 1344.53 805.942 1343.56C806.518 1342.54 806.119 1341.3 805.145 1340.77C801.427 1338.73 797.93 1336.69 794.566 1334.57C793.592 1333.99 792.308 1334.26 791.733 1335.23C791.113 1336.21 791.423 1337.49 792.397 1338.07ZM1080.77 1336.25C1084.66 1335.1 1088.65 1333.9 1092.59 1332.71C1093.69 1332.4 1094.31 1331.25 1094 1330.14C1093.65 1329.08 1092.5 1328.46 1091.44 1328.77C1087.45 1329.96 1083.51 1331.12 1079.57 1332.31C1078.46 1332.62 1077.84 1333.77 1078.2 1334.83C1078.51 1335.94 1079.66 1336.56 1080.77 1336.25ZM1116.31 1325.67C1120.25 1324.47 1124.2 1323.32 1128.18 1322.13C1129.24 1321.82 1129.86 1320.67 1129.55 1319.56C1129.24 1318.5 1128.09 1317.88 1126.98 1318.19C1123.04 1319.38 1119.06 1320.53 1115.12 1321.73C1114.06 1322.04 1113.44 1323.19 1113.75 1324.25C1114.06 1325.36 1115.21 1325.98 1116.31 1325.67ZM762.692 1315.22C765.569 1317.92 768.668 1320.71 772.076 1323.5C772.962 1324.21 774.291 1324.08 774.999 1323.19C775.707 1322.31 775.574 1321.02 774.733 1320.31C771.368 1317.57 768.313 1314.87 765.524 1312.26C764.683 1311.46 763.4 1311.5 762.603 1312.35C761.807 1313.14 761.851 1314.47 762.692 1315.22ZM1151.91 1315.18C1155.85 1314.03 1159.79 1312.88 1163.77 1311.73C1164.83 1311.42 1165.5 1310.26 1165.19 1309.2C1164.88 1308.1 1163.73 1307.48 1162.62 1307.79C1158.64 1308.94 1154.7 1310.04 1150.76 1311.19C1149.65 1311.55 1149.03 1312.7 1149.34 1313.76C1149.65 1314.87 1150.8 1315.49 1151.91 1315.18ZM1187.54 1305C1191.53 1303.89 1195.47 1302.83 1199.45 1301.72C1200.56 1301.41 1201.22 1300.3 1200.91 1299.2C1200.6 1298.09 1199.45 1297.47 1198.39 1297.74C1194.41 1298.84 1190.42 1299.95 1186.44 1301.06C1185.33 1301.32 1184.71 1302.47 1185.02 1303.58C1185.33 1304.69 1186.44 1305.31 1187.54 1305ZM738.388 1286.58C738.388 1286.58 740.735 1290.61 745.693 1296.9C746.401 1297.78 747.728 1297.91 748.614 1297.2C749.499 1296.5 749.631 1295.21 748.923 1294.33C744.186 1288.31 741.93 1284.5 741.93 1284.5C741.355 1283.53 740.115 1283.17 739.141 1283.75C738.123 1284.32 737.813 1285.61 738.388 1286.58ZM1223.36 1295.39C1227.34 1294.37 1231.33 1293.35 1235.31 1292.34C1236.42 1292.07 1237.08 1290.96 1236.82 1289.86C1236.55 1288.75 1235.4 1288.09 1234.29 1288.35C1230.31 1289.32 1226.32 1290.34 1222.29 1291.41C1221.19 1291.67 1220.52 1292.82 1220.83 1293.93C1221.1 1294.99 1222.25 1295.66 1223.36 1295.39ZM1259.3 1286.58C1263.33 1285.65 1267.36 1284.72 1271.35 1283.84C1272.5 1283.61 1273.16 1282.51 1272.94 1281.4C1272.67 1280.29 1271.61 1279.59 1270.46 1279.81C1266.48 1280.69 1262.45 1281.62 1258.37 1282.55C1257.27 1282.82 1256.6 1283.92 1256.87 1285.03C1257.09 1286.14 1258.2 1286.8 1259.3 1286.58ZM1478.08 1277.42C1481.98 1278.7 1485.79 1280.16 1489.5 1281.71C1490.57 1282.15 1491.76 1281.67 1492.2 1280.65C1492.65 1279.59 1492.16 1278.39 1491.1 1277.95C1487.33 1276.31 1483.4 1274.85 1479.41 1273.52C1478.3 1273.12 1477.15 1273.74 1476.8 1274.8C1476.45 1275.87 1477.02 1277.06 1478.08 1277.42ZM1295.52 1278.83C1299.59 1278.04 1303.62 1277.28 1307.65 1276.58C1308.8 1276.35 1309.51 1275.29 1309.33 1274.18C1309.11 1273.03 1308.04 1272.33 1306.94 1272.5C1302.86 1273.26 1298.84 1274.01 1294.76 1274.8C1293.61 1275.03 1292.9 1276.09 1293.13 1277.2C1293.35 1278.3 1294.41 1279.05 1295.52 1278.83ZM1331.99 1272.59C1336.11 1271.97 1340.18 1271.44 1344.21 1270.91C1345.36 1270.78 1346.16 1269.71 1345.98 1268.61C1345.85 1267.46 1344.83 1266.66 1343.68 1266.84C1339.61 1267.32 1335.54 1267.9 1331.42 1268.52C1330.27 1268.65 1329.52 1269.71 1329.65 1270.82C1329.82 1271.97 1330.89 1272.77 1331.99 1272.59ZM1442.31 1269.32C1446.43 1269.89 1450.46 1270.55 1454.44 1271.31C1455.55 1271.53 1456.61 1270.78 1456.83 1269.67C1457.06 1268.56 1456.3 1267.46 1455.2 1267.23C1451.17 1266.48 1447.05 1265.82 1442.89 1265.24C1441.78 1265.07 1440.72 1265.86 1440.59 1267.01C1440.41 1268.12 1441.21 1269.18 1442.31 1269.32ZM1368.74 1268.34C1372.86 1267.99 1376.97 1267.72 1381 1267.5C1382.15 1267.41 1383.04 1266.44 1382.95 1265.33C1382.9 1264.18 1381.93 1263.3 1380.78 1263.38C1376.71 1263.61 1372.54 1263.87 1368.38 1264.22C1367.23 1264.31 1366.39 1265.33 1366.48 1266.44C1366.61 1267.59 1367.59 1268.43 1368.74 1268.34ZM1405.61 1266.88C1409.73 1266.88 1413.85 1267.01 1417.88 1267.19C1419.03 1267.23 1420 1266.35 1420.05 1265.2C1420.09 1264.09 1419.2 1263.12 1418.05 1263.07C1413.98 1262.9 1409.82 1262.76 1405.61 1262.76C1404.51 1262.72 1403.58 1263.65 1403.58 1264.8C1403.53 1265.91 1404.46 1266.84 1405.61 1266.88Z" fill="#3D61FF"/>
<path fill-rule="evenodd" clip-rule="evenodd" d="M871.034 1270.49C864.615 1270.49 859.391 1275.71 859.391 1282.13C859.391 1288.6 864.615 1293.82 871.034 1293.82C877.498 1293.82 882.723 1288.6 882.723 1282.13C882.723 1275.71 877.498 1270.49 871.034 1270.49ZM871.034 1274.61C875.24 1274.61 878.605 1277.97 878.605 1282.13C878.605 1286.34 875.24 1289.7 871.034 1289.7C866.873 1289.7 863.509 1286.34 863.509 1282.13C863.509 1277.97 866.873 1274.61 871.034 1274.61Z" fill="#FF3D3D"/>
<path fill-rule="evenodd" clip-rule="evenodd" d="M1390.57 952.478C1385.53 952.478 1381.49 956.562 1381.49 961.553C1381.49 966.545 1385.53 970.629 1390.57 970.629C1395.56 970.629 1399.65 966.545 1399.65 961.553C1399.65 956.562 1395.56 952.478 1390.57 952.478ZM1390.57 956.613C1393.29 956.613 1395.51 958.831 1395.51 961.553C1395.51 964.276 1393.29 966.495 1390.57 966.495C1387.8 966.495 1385.58 964.276 1385.58 961.553C1385.58 958.831 1387.8 956.613 1390.57 956.613Z" fill="#FF3D3D"/>
<path fill-rule="evenodd" clip-rule="evenodd" d="M1325.57 862.717L1380.11 837.484C1381.13 836.997 1381.57 835.757 1381.13 834.738C1380.64 833.676 1379.4 833.234 1378.38 833.721L1323.84 858.998C1322.82 859.485 1322.38 860.68 1322.87 861.743C1323.31 862.761 1324.55 863.204 1325.57 862.717Z" fill="#3D61FF"/>
<path fill-rule="evenodd" clip-rule="evenodd" d="M670.37 1166.61C669.678 1166.23 668.793 1166.26 668.139 1166.76C667.486 1167.26 667.217 1168.11 667.409 1168.88L693.636 1277.79C693.79 1278.4 694.25 1278.94 694.827 1279.17C695.442 1279.44 696.135 1279.4 696.673 1279.06L743.474 1252.06L788.659 1235.22C789.39 1234.95 789.929 1234.25 789.968 1233.45C790.045 1232.64 789.622 1231.87 788.93 1231.49L670.37 1166.61ZM672.485 1172.46L782.969 1232.95L741.859 1248.25C741.743 1248.29 741.666 1248.33 741.551 1248.41L697.02 1274.13L672.485 1172.46Z" fill="#3D61FF"/>
<path fill-rule="evenodd" clip-rule="evenodd" d="M1357.25 617.507C1357.45 616.699 1357.16 615.89 1356.51 615.372C1355.86 614.887 1354.99 614.822 1354.28 615.211L1254.54 669.788C1253.86 670.176 1253.44 670.952 1253.47 671.761C1253.54 672.537 1254.06 673.249 1254.83 673.54L1292.81 687.677L1332.15 710.388C1332.7 710.712 1333.38 710.776 1333.99 710.517C1334.58 710.258 1335.03 709.741 1335.16 709.094L1357.25 617.507ZM1352.18 621.066C1352.18 621.066 1335.35 690.783 1331.79 705.438L1294.72 684.022C1294.62 683.957 1294.53 683.893 1294.4 683.86L1260.49 671.243L1352.18 621.066Z" fill="#AB3DFF"/>
<path fill-rule="evenodd" clip-rule="evenodd" d="M743.09 1248.56L672.715 1169.07C671.985 1168.23 670.677 1168.11 669.831 1168.88C668.985 1169.65 668.87 1170.96 669.639 1171.8L740.013 1251.29C740.744 1252.14 742.051 1252.21 742.897 1251.44C743.782 1250.71 743.859 1249.41 743.09 1248.56Z" fill="#3D61FF"/>
<path fill-rule="evenodd" clip-rule="evenodd" d="M1296.11 686.934L1355.28 620.064C1356.06 619.223 1355.96 617.929 1355.12 617.152C1354.28 616.408 1352.95 616.505 1352.21 617.346L1293.01 684.217C1292.26 685.058 1292.33 686.384 1293.2 687.128C1294.04 687.872 1295.33 687.808 1296.11 686.934Z" fill="#AB3DFF"/>
<path fill-rule="evenodd" clip-rule="evenodd" d="M738.938 1250.37L726.901 1274.98L717.979 1264.17C717.248 1263.29 715.94 1263.17 715.056 1263.87C714.171 1264.6 714.056 1265.9 714.787 1266.79L725.747 1280.06C726.208 1280.59 726.901 1280.86 727.593 1280.79C728.285 1280.71 728.9 1280.29 729.208 1279.67L742.628 1252.17C743.128 1251.17 742.706 1249.94 741.706 1249.44C740.668 1248.94 739.437 1249.37 738.938 1250.37Z" fill="#3D61FF"/>
<path fill-rule="evenodd" clip-rule="evenodd" d="M1293.33 687.646L1304.65 710.745C1304.98 711.359 1305.59 711.812 1306.27 711.877C1306.98 711.974 1307.66 711.682 1308.11 711.132L1317.33 699.971C1318.05 699.098 1317.92 697.804 1317.04 697.092C1316.17 696.348 1314.88 696.478 1314.16 697.351L1306.95 706.054L1297.05 685.834C1296.53 684.799 1295.3 684.378 1294.3 684.864C1293.27 685.381 1292.84 686.61 1293.33 687.646Z" fill="#AB3DFF"/>
<path fill-rule="evenodd" clip-rule="evenodd" d="M1496.29 1042.24C1494.56 1035.78 1487.94 1031.96 1481.47 1033.69C1457.23 1040.18 1401.76 1055.05 1377.5 1061.55C1371.05 1063.27 1367.22 1069.9 1368.95 1076.36C1373.31 1092.64 1381.16 1121.95 1385.53 1138.23C1387.25 1144.68 1393.89 1148.51 1400.34 1146.78L1504.31 1118.92C1510.78 1117.19 1514.59 1110.56 1512.87 1104.11C1508.5 1087.83 1500.65 1058.52 1496.29 1042.24Z" fill="#FF7A3D"/>
<path fill-rule="evenodd" clip-rule="evenodd" d="M1368.73 1068.03C1368.73 1068.03 1413.81 1086.27 1433.06 1094.04C1438.97 1096.44 1445.76 1094.62 1449.67 1089.59C1462.41 1073.28 1492.17 1035.16 1492.17 1035.16C1492.88 1034.27 1492.71 1032.97 1491.82 1032.28C1490.92 1031.58 1489.62 1031.74 1488.91 1032.62L1446.43 1087.05C1443.64 1090.64 1438.81 1091.93 1434.6 1090.22L1370.27 1064.21C1369.23 1063.8 1368.03 1064.3 1367.6 1065.36C1367.17 1066.41 1367.68 1067.62 1368.73 1068.03Z" fill="white"/>
<path fill-rule="evenodd" clip-rule="evenodd" d="M1003.97 809.028C1003.97 809.028 1009.41 840.327 1015.57 854.227C1015.57 854.227 1005.52 884.994 1026.72 878.619C1026.72 878.619 1043.93 927.67 1089.83 904.694L1097.96 928.954L1185.42 913.327L1165.87 865.383L1121.66 787.514L1003.97 809.028Z" fill="#FFC8A3"/>
<path fill-rule="evenodd" clip-rule="evenodd" d="M1118.07 813.166C1118.07 813.166 1107.28 818.803 1097.28 831.177C1096.57 832.06 1096.69 833.357 1097.57 834.069C1098.49 834.794 1099.77 834.651 1100.48 833.763C1109.84 822.14 1120.01 816.823 1120.01 816.823C1121.01 816.294 1121.42 815.051 1120.87 814.04C1120.33 813.029 1119.12 812.643 1118.07 813.166Z" fill="#000045"/>
<path fill-rule="evenodd" clip-rule="evenodd" d="M1117.84 828.934C1117.84 828.934 1111.23 824.855 1106.28 823.265C1105.16 822.914 1104.01 823.513 1103.67 824.596C1103.33 825.68 1103.95 826.845 1105.02 827.19C1109.6 828.656 1115.66 832.437 1115.66 832.437C1116.65 833.038 1117.91 832.736 1118.52 831.773C1119.09 830.798 1118.83 829.535 1117.84 828.934Z" fill="#000045"/>
<path fill-rule="evenodd" clip-rule="evenodd" d="M1088.78 814.074C1088.78 814.074 1090.68 822.751 1090.28 837.758C1090.28 838.112 1090.02 838.467 1089.66 838.644C1089.31 838.821 1088.91 838.732 1088.6 838.466C1085.68 835.677 1079.08 828.728 1072.53 816.908C1072.53 816.908 1028.08 823.282 1004.53 811.241L1006.04 818.678C1006.04 818.678 986.869 808.629 991.295 785.565L982.398 794.949C982.398 794.949 989.48 708.713 1072.53 691.979C1139.29 678.566 1166.96 719.648 1166.96 719.648C1166.96 719.648 1219.24 744.837 1202.9 797.783C1188.91 843.159 1182.32 850.065 1170.76 876.007L1159.7 878.132L1123.04 841.256C1123.04 841.256 1138.23 829.347 1126.98 811.241C1120.83 801.369 1102.23 797.385 1088.78 814.074Z" fill="#000045"/>
<path fill-rule="evenodd" clip-rule="evenodd" d="M1022.81 827.32C1022.81 827.32 1027.97 820.978 1039.33 818.935C1040.44 818.718 1041.15 817.63 1040.95 816.53C1040.75 815.385 1039.66 814.671 1038.54 814.844C1025.49 817.258 1019.62 824.731 1019.62 824.731C1018.9 825.643 1019.05 826.922 1019.93 827.643C1020.81 828.365 1022.09 828.187 1022.81 827.32Z" fill="#000045"/>
<path fill-rule="evenodd" clip-rule="evenodd" d="M1066.28 866.863C1066.28 866.863 1064.56 882.305 1047.75 883.197C1046.65 883.303 1045.78 884.295 1045.82 885.365C1045.87 886.51 1046.86 887.422 1048.02 887.304C1068.41 886.198 1070.39 867.329 1070.39 867.329C1070.47 866.161 1069.68 865.14 1068.55 865.022C1067.42 864.904 1066.38 865.77 1066.28 866.863Z" fill="#000045"/>
<path d="M1034.01 844.792C1037.2 844.36 1039.44 841.419 1039.01 838.224C1038.58 835.028 1035.64 832.789 1032.44 833.221C1029.25 833.653 1027.01 836.594 1027.44 839.79C1027.87 842.985 1030.81 845.225 1034.01 844.792Z" fill="#000045"/>
<path fill-rule="evenodd" clip-rule="evenodd" d="M1089.85 904.697C1089.85 904.697 1102.6 898.765 1112.69 880.614L1109.5 921.121L1094.67 919.217L1089.85 904.697Z" fill="#E89B68"/>
<path fill-rule="evenodd" clip-rule="evenodd" d="M1066.16 1407.83L1044.33 1125.57V994.537L1189.76 975.058L1282.19 1014.15C1298.88 1015.83 1352.98 1225.62 1371.97 1407.83H1066.16Z" fill="#3D61FF"/>
<path fill-rule="evenodd" clip-rule="evenodd" d="M1054.6 961.467C1054.6 961.467 1053.06 940.04 1071.38 927.556C1089.75 915.116 1202.95 883.11 1254.13 902.411C1273.3 909.627 1277.63 928.176 1284.8 955.136C1288.57 969.346 1286.13 973.818 1297.2 994.049C1308.22 1014.28 1290.65 1032.08 1267.63 1031.99C1244.61 1031.85 1185.42 1028.49 1126.85 1006.44C1068.28 984.354 1055.76 995.155 1042.7 1001.88C1042.7 1001.88 1033.18 973.729 1054.6 961.467Z" fill="#FF7A3D"/>
<path fill-rule="evenodd" clip-rule="evenodd" d="M1118.67 1037.86C1118.67 1037.86 1130.84 1070.75 1113.35 1137.15C1099.98 1187.97 1054.21 1253.18 1054.21 1253.18L1055.23 1266.42C1055.23 1266.42 1077.76 1241.85 1101.27 1196.12C1125.17 1149.64 1126.77 1122.46 1127.87 1111.96C1132.61 1067.56 1118.67 1037.86 1118.67 1037.86Z" fill="#001C8C"/>
<path d="M475.049 1407.83H1549.95" stroke="#000045" stroke-width="0.00494867" stroke-miterlimit="1.5" stroke-linecap="round" stroke-linejoin="round"/>
<path fill-rule="evenodd" clip-rule="evenodd" d="M876.187 1001.46C876.187 1001.46 868.446 984.772 866.824 974.759C865.201 964.7 858.943 953.713 854.308 949.078C849.858 944.628 842.44 949.078 842.44 949.078C842.44 949.078 819.864 918.483 810.407 905.643C808.136 902.583 803.779 901.934 800.72 904.159C797.568 906.477 796.733 910.835 798.726 914.172C806.189 926.642 822.971 954.502 822.971 954.502C822.971 954.502 813.05 957.978 810.083 966.415C810.083 966.415 800.024 971.7 799.514 981.156C799.514 981.156 792.839 987.692 795.157 997.797C797.475 1007.9 810.084 1016.57 817.176 1020.79C824.269 1025.06 830.943 1033.35 830.943 1033.35L852.591 1026.86L876.187 1001.46Z" fill="#FFC8A3"/>
<path fill-rule="evenodd" clip-rule="evenodd" d="M899.35 1019.19C905.503 1019.33 909.487 1021.19 914.047 1025.53C926.752 1037.7 952.252 1064.93 993.644 1120.84C993.644 1120.84 1021.71 1025.26 1042.12 1002.82C1062.53 980.415 1142.65 1012.78 1122.73 1100.16C1102.86 1187.6 1070.1 1268.21 1015.07 1269.49C960 1270.78 921.44 1219.51 881.2 1162.8C840.915 1106.1 834.539 1072.27 838.568 1060.63C838.568 1060.63 838.702 1060.14 839.101 1059.3C837.994 1057.05 834.185 1050.98 831.042 1045.05C828.165 1039.56 829.14 1032.83 833.434 1028.36C840.782 1020.79 854.328 1009.01 874.028 1000.73C878.19 999.008 883.014 1000.16 885.936 1003.61C891.337 1009.85 899.35 1019.19 899.35 1019.19Z" fill="#3D61FF"/>
<path fill-rule="evenodd" clip-rule="evenodd" d="M993.651 1120.86C1001.84 1131.93 1009.63 1152.74 1016.85 1184.26C1016.85 1184.26 1022.07 1138.75 997.768 1107.36L993.651 1120.86Z" fill="#001C8C"/>
<path fill-rule="evenodd" clip-rule="evenodd" d="M843.065 951.775L850.81 965.768C851.091 966.244 851.726 966.438 852.219 966.187C852.715 965.893 852.919 965.25 852.639 964.775L844.845 950.785C844.565 950.31 843.976 950.111 843.48 950.405C842.987 950.656 842.784 951.299 843.065 951.775Z" fill="#E89B68"/>
</svg>
