<?xml version="1.0" encoding="utf-8"?>
<!-- Generator: Adobe Illustrator 25.3.1, SVG Export Plug-In . SVG Version: 6.00 Build 0)  -->
<svg version="1.1" id="Layer_1" xmlns="http://www.w3.org/2000/svg" xmlns:xlink="http://www.w3.org/1999/xlink" x="0px" y="0px"
	 viewBox="0 0 3000 3000" style="enable-background:new 0 0 3000 3000;" xml:space="preserve">
<style type="text/css">
	.st0{fill:#E0ECF8;}
	.st1{fill:#CAD9EB;}
	.st2{fill:#566F88;}
	.st3{fill:#8196AA;}
	.st4{fill:#A4B9CC;}
	.st5{fill:#A5C0DB;}
	.st6{fill:#B2C5D8;}
	.st7{fill:#7C96B0;}
	.st8{fill:#ECF6FF;}
	.st9{fill:#893224;}
	.st10{fill:#AABFD7;}
	.st11{fill-rule:evenodd;clip-rule:evenodd;fill:#E0ECF8;}
	.st12{fill:#F0A246;}
	.st13{fill-rule:evenodd;clip-rule:evenodd;fill:#893224;}
	.st14{fill:#F6B383;}
	.st15{fill-rule:evenodd;clip-rule:evenodd;fill:#C38050;}
	.st16{fill:#FFFFFF;}
	.st17{fill:#C38050;}
	.st18{fill:#181817;}
	.st19{fill:#E38835;}
	.st20{fill-rule:evenodd;clip-rule:evenodd;fill:#E38835;}
	.st21{fill-rule:evenodd;clip-rule:evenodd;fill:#FFFFFF;}
	.st22{fill-rule:evenodd;clip-rule:evenodd;fill:#7C1414;}
	.st23{fill-rule:evenodd;clip-rule:evenodd;fill:#4D6582;}
	.st24{fill-rule:evenodd;clip-rule:evenodd;fill:#C0764F;}
</style>
<g>
	<path class="st0" d="M619.2,2558.4c604.6,505,1512.9,310.9,1847.8-132.9s536.2-1691.8-308.1-2130.1
		C1314.5-142.9,563.6,493.9,936.2,527.3c372.7,33.4,674.7,221.3,74,379.3C137.8,1136,14.6,2053.4,619.2,2558.4z"/>
	<path class="st1" d="M2466.9,2425.5c-334.8,443.8-1243.2,637.9-1847.8,132.9c-149.9-125.1-255-275.6-315.1-434.7
		c101.5-129.1,443.9-129.8,783.7,145.2c0-195.6,124.6-103.1,186.9-32.5c-186.9-752.7,270.7-799.6,555.7-46.3
		c19.4-77.5,75.5-182,145,20c17.5-471.4,313.8-555.1,468.2-148.2c3.1-52.5,136.3-215.1,133.8-20.6c46.2-87.4,91.7-156.6,134.8-209.3
		C2660.9,2074.9,2570.3,2288.5,2466.9,2425.5z"/>
	<path class="st2" d="M2518.4,2349.8l8.6-244.8l-54.2,15.9L2464,2430c1-1.4,2.1-2.7,3.1-4.1
		C2484.6,2402.6,2501.8,2377.2,2518.4,2349.8z"/>
	<path class="st3" d="M2704,1867.3c-5.8-2.5-11.9-4.3-18.4-5.1c-70.5-8.8-293.8,2.7-396.7,9.5c-77.9,21.1-69.4,170.7-65.5,238.8
		c0.7,13.1,1.3,23.1,1.1,28.7l173.1,18.8l220-11.1C2651.7,2061.4,2681.2,1967.1,2704,1867.3z"/>
	<path class="st2" d="M2372.5,1927c-10.4-19.6-22.8-29.8-81.4-53c-15.9,0-22.7,6.9-24.2,10.4c10.5,7.2,45.4,87.7,68,142.6
		c-3.7,33.3-3.1,72.2,1.4,116.1h60.9c10.9-35.2,12.1-147.7-24.4-216.4C2372.8,1926.7,2372.6,1926.8,2372.5,1927z"/>
	<path class="st4" d="M2216,2381.2c76,16.4,160.8-81.2,184-235.9c-33.4,0-114.7-1.9-172.6-9.3
		C2200.2,2177.8,2140,2364.9,2216,2381.2z"/>
	<path class="st5" d="M550,2495l-13.3-467.2L451,2003l14.1,399.1C491.1,2434.1,519.4,2465.1,550,2495z"/>
	<path class="st6" d="M285.1,2068h369.7l271.8-10.9c-0.4-8.8,0.5-24.6,1.7-45.1c6.1-106.9,19.4-341.9-103.1-375
		c-138.4-9.2-415.5-23.8-562.1-19.1C231.6,1764.8,239,1919.2,285.1,2068z"/>
	<path class="st7" d="M693.6,1723.3c16.4-30.8,36-46.8,128.3-83.3c25,0,35.8,10.9,38.1,16.3c-16.5,11.3-71.6,137.9-107.2,224.2
		c5.9,52.4,4.9,113.6-2.3,182.5h-96c-17.2-55.4-19-232.3,38.5-340.3C693.3,1722.9,693.4,1723.1,693.6,1723.3z"/>
	<path class="st8" d="M938.9,2437.3c-119.3,25.6-248.5-132.2-284.9-374.6c52.4,0,202.1-9.7,267.1-9.7
		C963.8,2118.4,1058.2,2411.7,938.9,2437.3z"/>
	<path class="st9" d="M1299.3,1592.7c10.5,51.6,19.4,80.3,37.3,131.5c159.7,26.7,254.7,69.4,393.5-9.4
		c23.9-70.1,40.1-145.4,25-186.4c32.8,1.4-3.3-50.5-41.2-83.2c55.1-24.4-59.5-87.1-141.9-87.1c-87.4,0-209.9,42-227.1,87.1
		c-45.6,17.2-81.8,102.7-44.5,124.3C1288.1,1586.3,1290.9,1589.4,1299.3,1592.7z"/>
	<path class="st10" d="M1706.8,513.9l-314.3-2c-2.9,0-5.3,2.2-5.6,5.1L1368.6,727c-0.3,3.1,2.1,5.9,5.3,6l316,15.8
		c3,0.2,5.6-2.1,5.8-5.1l16.7-223.9C1712.6,516.6,1710.1,513.9,1706.8,513.9z"/>
	<path class="st11" d="M1368.6,726.7l131.2-84.1c-24.8-21-54.8-51.4-79.7-78.5c-13-14.2-24.6-27.5-33.3-38.2
		c-0.2-0.2-0.4-0.5-0.6-0.7l0.7-8.4c0-0.4,0.1-0.7,0.2-1.1c1.5,1.9,3.1,3.8,4.8,5.9c8.6,10.5,20.2,23.8,33.1,37.9
		c25.9,28.3,57.4,60.1,82.5,80.7c8.1,6.7,15.4,12.1,21.6,15.9l21.1-16.6l158.9-125.3c2,1,3.3,3.1,3.1,5.4l0,0.7l-154.4,121.7
		l137.8,100.3l-0.1,1.2c-0.2,2.1-1.4,3.8-3.2,4.6l-140-101.9l-20.9,16.5l-1.8,1.4l-2-1.1c-6.6-3.8-14.3-9.4-22.6-16.2l-133.4,85.5
		c-2.1-0.9-3.5-3.1-3.2-5.6L1368.6,726.7z"/>
	<path class="st12" d="M1069,632L656.9,860.8c-3.8,2.1-5.3,6.8-3.5,10.7L784,1159.6c2,4.3,7.1,6.1,11.3,4l424.5-212
		c4-2,5.8-6.9,3.8-11l-143-304.9C1078.6,631.4,1073.2,629.7,1069,632z"/>
	<path class="st13" d="M783.8,1159.2l109.5-206.4c-47.9-9.1-109.5-26.7-161.8-43.9c-27.5-9-52.5-17.9-71.7-25.4
		c-0.4-0.2-0.8-0.3-1.2-0.5l-5.2-11.5c-0.2-0.5-0.4-1-0.5-1.6c3.3,1.4,6.8,2.8,10.6,4.2c19,7.4,43.8,16.2,71.2,25.2
		c54.7,17.9,119.2,36.2,167.2,44.8c15.4,2.8,29,4.5,40,4.9l15.3-37.3L1072.6,631c3.3-0.2,6.6,1.6,8.1,4.8l0.4,0.9L968.9,909.4
		l253.9,29.6l0.8,1.7c1.3,2.8,0.9,6-0.8,8.4L965,919l-15.2,37l-1.3,3.1l-3.4,0c-11.4-0.1-25.6-1.8-41.4-4.5l-111.3,209.9
		c-3.4,0.3-6.8-1.5-8.3-4.9L783.8,1159.2z"/>
	<path class="st10" d="M682,1311.3l-212.1,179c-2.2,1.9-2.6,5.1-0.9,7.5l108,151.2c1.8,2.6,5.4,3.1,7.9,1.2L806,1479.5
		c2.4-1.8,2.9-5.3,1.1-7.7l-117-159.5C688.2,1309.7,684.5,1309.2,682,1311.3z"/>
	<path class="st11" d="M577,1649l39.7-131.5c-28.8,0.1-66.3-3-98.5-7c-17-2.1-32.5-4.4-44.5-6.5c-0.1,0-0.3,0-0.4-0.1l-4.3-6.1
		c-0.4-0.5-0.6-1.1-0.8-1.7c2.1,0.4,4.3,0.8,6.7,1.3c11.9,2.1,27.3,4.4,44.1,6.5c33.8,4.1,73.3,7.4,102.1,6.9
		c9.1-0.2,17.1-0.7,23.4-1.7l4.6-23.1l34.8-175.7c2.2-0.7,4.6,0.1,6.1,2l0.3,0.3l-33.7,170.2l150-11.8l0.5,0.7
		c1.3,1.8,1.4,4.1,0.4,5.9l-152.3,12l-4.5,22.9l-0.4,2.2l-2.2,0.4c-6.6,1.2-14.9,1.9-24.3,2.1l-40.4,133.8
		C581.1,1651.8,578.5,1651.1,577,1649L577,1649z"/>
	<path class="st12" d="M1011.1,1693.2l-136.7,140.6c-2,2.1-2.1,5.4-0.2,7.5l85.8,98.1c2.1,2.4,5.7,2.6,8,0.4l143.6-135.3
		c2.2-2.1,2.3-5.5,0.3-7.8l-92.7-103.3C1017.1,1691,1013.4,1690.9,1011.1,1693.2z"/>
	<path class="st13" d="M960.3,1939.7l18.7-94.8c-20.4,2-46.9,2.4-69.7,1.8c-12-0.3-23-0.8-31.6-1.5l-3.5-3.9c-0.8-0.9-1.2-2-1.4-3.2
		c1.4,0.1,3,0.3,4.7,0.4c8.6,0.7,19.8,1.2,31.9,1.5c24.4,0.6,52.8,0.1,73.3-2.3c6.2-0.7,11.6-1.6,15.9-2.7l1.6-16.2l12.4-126.8
		c2.2-1.1,4.9-0.7,6.6,1.2l-11.9,121.9l104.5-18.7l0.2,0.2c1.6,1.8,1.9,4.4,0.7,6.4l-106,18.9l-1.6,16l-0.2,2.3l-2.2,0.6
		c-4.5,1.3-10.2,2.3-16.7,3.2l-19.1,96.5C964.8,1941.8,962.1,1941.4,960.3,1939.7z"/>
	<path class="st10" d="M2074.1,504.3l301,152.4c2.7,1.4,3.8,4.6,2.5,7.3l-100.5,213.4c-1.3,2.7-4.6,3.9-7.3,2.7l-310.3-139.8
		c-2.9-1.3-4.1-4.7-2.7-7.5l109.8-225.9C2068,504,2071.4,502.9,2074.1,504.3z"/>
	<path class="st11" d="M2277.5,876.6l-78.2-146.2c35.4-8.1,81.3-22.8,120.3-37c20.3-7.4,38.8-14.6,53.1-20.6c0.4-0.1,0.7-0.3,1-0.4
		l4-8.5c0.1-0.2,0.2-0.4,0.2-0.6c-2.4,1.1-5.1,2.2-7.9,3.4c-14.1,6-32.5,13.1-52.7,20.5c-40.5,14.7-88.2,30-123.7,37.7
		c-11.5,2.5-21.6,4.2-29.7,4.8l-10.8-26.5l-81.5-199.6c-2.1,0-4,1.2-5,3.1l-0.5,1l79.2,194l-187.9,29.6l-0.6,1.2
		c-0.9,1.9-0.7,4,0.4,5.5l190.7-30l10.7,26.2l0.9,2.2l2.4-0.1c8.4-0.5,18.9-2.1,30.6-4.6l79.5,148.6c2.1,0,4.2-1.1,5.2-3.2
		L2277.5,876.6z"/>
	<path class="st12" d="M2259.8,1126.1l265.5,134.4c2.7,1.4,3.8,4.6,2.5,7.3l-88.5,187.9c-1.3,2.8-4.5,3.9-7.3,2.7l-273.8-123.3
		c-2.9-1.3-4.1-4.7-2.7-7.5l96.7-198.9C2253.7,1125.8,2257,1124.7,2259.8,1126.1z"/>
	<path class="st13" d="M2439.6,1455.3l-68.9-128.8c31.3-7.2,71.7-20.2,106.1-32.7c18-6.5,34.4-12.9,47-18.2c0.2-0.1,0.3-0.1,0.5-0.2
		l3.5-7.5c0.2-0.5,0.4-1,0.5-1.5c-2.2,1-4.6,2-7.1,3.1c-12.5,5.3-28.8,11.6-46.7,18.1c-35.9,13-78.1,26.5-109.6,33.4
		c-10,2.2-18.9,3.7-26,4.2l-9.5-23.2l-72-176.4c-2.1-0.1-4.2,1.1-5.2,3.1l-0.4,0.8l69.9,171.1l-165.7,26.1l-0.4,0.9
		c-1,2-0.7,4.2,0.6,5.8l168.2-26.5l9.4,23l0.9,2.2l2.4-0.1c7.4-0.4,16.6-1.8,26.9-4l70.1,131c2.2,0.1,4.4-1.1,5.4-3.2L2439.6,1455.3
		z"/>
	<path class="st10" d="M2056.4,1605.3l175.1,88.7c2.7,1.3,3.8,4.6,2.5,7.3l-57.9,123c-1.3,2.7-4.5,3.9-7.3,2.7l-180.5-81.3
		c-2.9-1.3-4.1-4.7-2.7-7.5l63.3-130.3C2050.3,1605.1,2053.6,1603.9,2056.4,1605.3z"/>
	<path class="st11" d="M2176.1,1824.3l-45.2-84.5c20.9-4.9,47.4-13.5,70-21.7c11.7-4.3,22.5-8.4,30.9-12l2.3-4.9
		c0.5-1.2,0.7-2.4,0.4-3.5c-1.4,0.6-2.9,1.3-4.5,2c-8.4,3.5-19.3,7.8-31.3,12.2c-24.1,8.7-52.4,17.8-73.4,22.4
		c-6.3,1.4-11.9,2.3-16.5,2.8l-6-14.8l-47.9-117.4c-2.3-0.3-4.7,0.8-5.8,3.1l-0.1,0.2l46,112.8l-109.2,17.2l-0.1,0.1
		c-1.1,2.2-0.5,4.8,1.2,6.4l110.7-17.4l6,14.6l0.9,2.2l2.4-0.1c4.9-0.3,10.8-1.2,17.4-2.5l46.1,86.1
		C2172.5,1827.8,2175,1826.6,2176.1,1824.3z"/>
	<path class="st12" d="M1879.8,2800.1c-0.5-15.7-0.9-32.6-1.3-51.5c69,0,166.3-53.9,155.7-147.9c4.5-66.7-48.9-234.1-97.3-317.5
		c8.5-14,2.8-35.6-13.9-45.6c-5.6-18.5-9.4-37.6-12.9-55.5c-8.6-43.7-15.8-80.4-45.5-85.2l-225.2-86.7c-2.1-19.2-18.4-26.1-41.5-36
		c-1-0.4-2-0.9-3-1.3l-111.2,7.8c-11.1,0-36.1,24.5-36.7,39.5c-14.3,4.6-29.5,9.3-44.7,14.1c-62.8,19.5-126.7,39.4-136.6,53.2
		c-55.8,78.6-154,405-200.6,711.1C1337.9,2881.8,1627.1,2873.2,1879.8,2800.1z"/>
	<path class="st14" d="M1606.2,2003.3c-12.7-12.2-13.9-48.6-11.6-92.3h-112.4c10,21.7,9.4,74-1.1,92.3c-14,24.4,22.8,52,60.3,53.6
		C1573.5,2058.3,1621.1,2017.7,1606.2,2003.3z"/>
	<path class="st15" d="M1594.2,1931.8c0.2-6.7,0.4-13.6,0.8-20.8h-113c2.4,5.1,4.2,12,5.4,19.7
		C1526.8,1949.4,1553.5,1949.8,1594.2,1931.8z"/>
	<path class="st14" d="M1603.2,1908.8c66.8-27.3,100.1-70.2,92.9-112.3c95.1,0,68.4-153,1.7-70.1c11.1-108.4-26.7-152-10.6-153.5
		c3.9-0.4-12.2-27.8-20-48.4c-41.6,12.6-76.4,15.7-148,17.8c59.5,18.9-70.1,12.8-146.9-27.2c-2.1,32.6-8.9,85.1,2.2,84
		c6.7-0.7-17.8,70.6-7.2,120.7c-58.2-41.5-81.2,91.2,15.6,91.2c7.5,62.6,63.4,84.8,87.9,97.9C1549.8,1951,1560.9,1926,1603.2,1908.8
		z"/>
	<path class="st16" d="M1467,2237.1c0-6.2,5-11.1,11.2-11.1h190.7c6.2,0,11.2,5,11.2,11.1v366.7c0,6.2-5,11.1-11.2,11.1h-190.7
		c-6.2,0-11.2-5-11.2-11.1V2237.1z"/>
	<path class="st17" d="M1581.6,1817c-28.6-0.2-51.2,4.2-92.3,12.3c-6.9,1.4-8.9,37.7-6.1,39.7c12.2,8.9,141.8,2.8,141.8-18.5
		C1625,1841.1,1601.1,1817.2,1581.6,1817z"/>
	<path class="st14" d="M1700.5,2408.4c21.2,12.8,72.3,96.8,79,114.1c12.3,31.7,17.2,83.5-27.3,116.3c-15.6,11.5-71.8-10.6-86.8-31.2
		c-66.8-23.4-121.8-22.8-110.2-60.7c-19.3-2.8-17.2-23.4-9.4-27.8c-19.5-9.5-19.9-27-11.1-34.5c-29.5-21.1,23.9-69.6,47.3-81.2
		C1597.5,2395.6,1691,2402.7,1700.5,2408.4z"/>
	<path class="st18" d="M1479.1,1590.1c-17.8-34.1-53.5-17.9-79.1,30.8C1434.6,1588.4,1483,1597.6,1479.1,1590.1z"/>
	<path class="st18" d="M1564.4,1621.4c12.8,3.9,48.5-53.7,88.6-20.7C1600.6,1596.8,1573.9,1652.8,1564.4,1621.4z"/>
	<path class="st18" d="M1623,1657.5c0,10.2-5.8,18.5-13,18.5s-13-8.3-13-18.5s5.8-18.5,13-18.5S1623,1647.3,1623,1657.5z"/>
	<path class="st18" d="M1462,1666.5c0,10.2-6,18.5-13.5,18.5s-13.5-8.3-13.5-18.5s6-18.5,13.5-18.5S1462,1656.3,1462,1666.5z"/>
	<path class="st19" d="M1497.7,2857.8c-75.8-36.9-124.6-96.2-148.6-125.8l-5.2,4.2c22.8,28.2,68.7,84.1,139.4,121.8
		C1488.1,2858,1492.9,2857.9,1497.7,2857.8z"/>
	<path class="st20" d="M1213.1,2834.6c0.1-1.1,0.1-2.2,0.2-3.4l0.1-1.3c5.3-86.6,14.2-172.3,22-248.7c0.5-4.8,1-9.6,1.5-14.3
		c8.2-79.9,15.1-148.9,15.1-196.8h-6.7c0,40.9-5.1,97.7-11.8,163.9c-10.8-48.9-17.2-80.8-20.5-132.3l-6.7,0.4
		c3.6,57,11,90.3,23.8,147.6c0.4,1.8,0.8,3.6,1.2,5.4c-0.4,3.7-0.8,7.4-1.2,11.2c-0.5,4.7-1,9.3-1.4,14.1l0,0.2
		c-7.5,72.5-15.8,153.4-21.2,235.7c-21.5-48.2-31.3-82.3-44.7-128.4v0l0,0c-2.9-10-6-20.6-9.4-32.1l-6.4,1.9c3.4,11.4,6.4,22,9.4,32
		c13.5,46.6,23.6,81.3,45.7,130.7c-7.4-6.1-14.9-12.8-22.2-19.2h0c-4.5-4-9-7.9-13.2-11.5c-7-6.1-13.6-11.4-18.9-15.2
		c-2.7-1.9-5.2-3.4-7.4-4.5c-2.1-1-4.5-1.8-6.7-1.4c-1.8,0.3-3.4,1-4.7,2.2c-1.3,1.2-2.1,2.7-2.5,4.3c-0.8,3.1-0.3,6.7,0.8,10.3
		c2.3,7.2,7.6,16,14.6,23.7c4.9,5.4,10.8,10.6,17.3,14.4c9.5,2.2,19,4.2,28.5,6.2c3.5-0.7,7-1.9,10.4-3.9c2.9,2.4,5.7,4.7,8.4,6.9
		c0,0.3,0,0.5-0.1,0.8C1208.7,2833.8,1210.9,2834.2,1213.1,2834.6z M1192.6,2821.1c-5.8-4.9-11.6-10.1-17.3-15v0l0,0
		c-4.5-3.9-8.8-7.8-13-11.3c-7-6.1-13.3-11.2-18.4-14.8c-2.6-1.8-4.7-3.1-6.4-3.9c-0.8-0.4-1.5-0.6-2-0.8c-0.5-0.1-0.7-0.1-0.7-0.1
		c-0.7,0.1-1.1,0.4-1.3,0.5c-0.2,0.2-0.4,0.5-0.6,1.1c-0.3,1.3-0.2,3.5,0.8,6.6c1.9,6.1,6.6,13.9,13.2,21.2
		c6.6,7.2,14.7,13.6,23.2,16.8C1177.5,2824.2,1185.2,2824.6,1192.6,2821.1z"/>
	<path class="st19" d="M1878.4,2748.6c0,2.2,0.1,4.4,0.1,6.6c-20-1.2-40.2-11-57-20.3c-4.1-2.3-8-4.5-11.6-6.6
		c-4.3-2.5-8.2-4.8-11.9-6.7c-3.3-1.8-6.3-3.2-8.8-4.3c-2.6-1-4.5-1.5-5.9-1.5c-7.4-0.1-13.2-1.2-17.7-3.3c-4.6-2.1-7.8-5.3-10-9.2
		c-2.1-3.8-3.3-8.3-4.1-13.1c-0.5-3.1-0.9-6.5-1.4-10.1v0l0,0c-0.1-0.8-0.2-1.5-0.3-2.3c-0.1-0.6-0.2-1.2-0.2-1.8
		c-5.9-4.2-13.7-12.1-20-19c-3.5-3.8-6.6-7.3-8.9-10c-1.2-1.3-2.1-2.5-2.8-3.3c-0.3-0.4-0.6-0.8-0.8-1c-0.1-0.1-0.1-0.2-0.2-0.2
		c0-0.1-0.1-0.1-0.1-0.1l0,0c0,0-0.1-0.1-0.2-0.3c-0.1-0.1-0.1-0.2-0.2-0.3l6-3c-0.1-0.2-0.2-0.3-0.2-0.3c0,0,0.1,0.1,0.2,0.2
		c0.2,0.2,0.4,0.5,0.7,0.9c0.6,0.8,1.6,1.9,2.7,3.2c2.3,2.6,5.3,6.1,8.8,9.8c6.9,7.5,14.9,15.5,20,18.8c11.8,7.7,23.8,7.3,35.2,1.4
		c11.6-6.1,22.5-17.9,31.2-33.2c17.1-30,24.9-71.5,13.2-103.2c-4.9-0.9-11.5-2.1-17.3-3.1c-3.3-0.6-6.3-1.1-8.6-1.5
		c-1.1-0.2-2.1-0.3-2.8-0.4c-0.6-0.1-0.9-0.1-1-0.1c0,0-0.1,0,0,0h-0.3l-24.2-3.9l1.1-6.6l20.6,3.4c1.2-6.9,3.1-12.5,5.8-17
		c0.9-1.4,1.8-2.8,2.9-3.9c1.2-12,2.9-24.1,5-36.2c1.1-27.7,1.6-51.1,2-72.5v0v0l0,0c1.1-50.4,1.9-89.8,9.4-147.3l6.6,0.9
		c-7.4,57.2-8.2,96.1-9.3,146.3c-0.2,10.9-0.5,22.4-0.8,34.6c5.1-21.1,11.4-41.7,18.6-60.9c16-42.6,36.8-79,60.5-99l4.3,5.1
		c-22.4,18.9-42.7,54-58.6,96.3c-14.7,39.2-25.4,84.1-30.4,127.1c1-0.5,2-1,3-1.4c5.5-2.1,12.1-2.8,19.6-2.6
		c7.5,0.2,16.2,1.3,26.1,2.8c4.4-0.1,9.3-2.2,15.7-5l0.2-0.1c6.2-2.7,13.5-5.9,21.7-7.1c8.4-1.2,17.7-0.3,27.9,5.1
		c10.2,5.3,21.1,14.9,33.1,30.7l-5.3,4c-11.6-15.3-21.9-24.1-30.9-28.8c-8.9-4.7-16.8-5.4-23.9-4.4c-7.2,1-13.8,3.9-20.1,6.7
		l-0.4,0.2c-6,2.6-12.3,5.4-18.3,5.4h-0.3l-0.3,0c-10-1.6-18.4-2.6-25.5-2.8c-7.1-0.2-12.7,0.5-17,2.2c-2.4,0.9-4.5,2.2-6.4,3.9
		c0,0.2,0,0.4-0.1,0.6l0,0.4l-0.8-0.1c-1,1-1.9,2.2-2.7,3.6c-2.2,3.5-3.8,8.2-4.9,14.5c0.3,0.1,0.7,0.1,1.1,0.2
		c2.3,0.4,5.4,0.9,8.7,1.5c6.6,1.2,14.2,2.6,19.2,3.5l1.8,0.3l0.7,1.7c13.6,34.3,5.1,79-13,110.7c-9.1,15.9-20.8,28.9-33.9,35.8
		c-11.4,6-23.8,7.2-36,1.6c0.4,3.2,0.8,6.2,1.2,8.9c0.8,4.5,1.7,8.1,3.3,11c1.5,2.7,3.7,4.9,7,6.4c3.4,1.6,8.2,2.6,15,2.7
		c2.5,0,5.3,0.8,8.2,2c2.9,1.1,6.1,2.7,9.6,4.6c3.7,2,7.9,4.4,12.3,6.9c3.6,2.1,7.5,4.3,11.3,6.4c17.3,9.6,37,18.9,55.8,19.6
		C1879.9,2748.6,1879.1,2748.6,1878.4,2748.6z"/>
	<path class="st19" d="M1722.2,2638.2C1722.2,2638.2,1722.2,2638.2,1722.2,2638.2C1722.2,2638.2,1722.2,2638.2,1722.2,2638.2z"/>
	<path class="st19" d="M1639.4,2009.6c-0.1-0.9-0.2-1.8-0.4-2.6l-0.1,0c2.2,9.6-1,19.1-7,28.3c-6,9.3-14.5,17.8-22.1,25.3l4.7,4.7
		l0.1-0.1c7.4-7.4,16.4-16.4,22.8-26.3c5.3-8.1,9.1-17.1,8.8-26.7L1639.4,2009.6z"/>
	<path class="st19" d="M1447.1,2019.6c-2.1,0.7-4.2,1.4-6.4,2.1c1.6,7.1,5,14.3,9.6,21.3c5.8,8.9,13.6,17.6,22,25.2
		c8.4,7.7,17.5,14.5,26.1,19.6c8.5,5.1,16.7,8.7,23.2,9.6l1-6.6c-5.3-0.8-12.6-3.8-20.8-8.8c-8.1-4.9-16.9-11.4-25-18.8
		c-8.1-7.4-15.5-15.7-21-24C1451.4,2032.5,1448.3,2025.8,1447.1,2019.6z"/>
	<path class="st19" d="M1499.5,2791.5c65.8,14.9,155.5-15.2,232.4-73.4l4,5.3c-77.6,58.7-169.3,90.1-237.9,74.6L1499.5,2791.5z"/>
	<path class="st1" d="M1548.5,2267c0,7.7-12.2,14-27.2,14c-15.1,0-27.3-6.3-27.3-14s12.2-14,27.3-14
		C1536.3,2253,1548.5,2259.3,1548.5,2267z"/>
	<path class="st1" d="M1583,2267.6c0,3.7-3,6.7-6.7,6.7c-3.7,0-6.7-3-6.7-6.7s3-6.7,6.7-6.7C1580,2260.8,1583,2263.9,1583,2267.6z"
		/>
	<path class="st15" d="M1511.6,1703.9c-2.4-24.3-5.2-51.5-25.1-73.4l4.9-4.5c21.5,23.6,24.4,53.1,26.8,77.2c0.2,2.5,0.5,4.9,0.7,7.2
		l-6.6,0.7C1512.1,1708.7,1511.9,1706.3,1511.6,1703.9z M1721.5,1724.9c-4,3-7.4,7.3-9.6,11.8l-6-2.9c2.6-5.5,6.8-10.6,11.5-14.2
		c4.7-3.6,10.3-6.2,15.8-6c5.8,0.1,10.9,3.2,14.1,9.6c3.1,6.1,4.4,15.3,3.4,27.9l-6.7-0.5c0.9-12.2-0.4-19.9-2.7-24.4
		c-2.2-4.3-5.1-5.8-8.3-5.9C1729.6,1720.2,1725.5,1721.8,1721.5,1724.9z M1372.6,1757c-1.6-11.6-3.2-23.9-5.5-37.3l6.6-1.1
		c2.3,13.6,4,26.1,5.6,37.7c0.6,4.4,1.2,8.6,1.8,12.8c2.2,15.1,4.4,28.6,8.2,41.2l-6.4,1.9c-3.9-13.1-6.2-27-8.3-42.1
		C1373.8,1765.7,1373.2,1761.4,1372.6,1757z M1522.2,1738.3c-4.5,4.7-9.4,11.3-14.9,19.4l-5.5-3.7c5.6-8.2,10.7-15.2,15.6-20.3
		c4.9-5.1,9.9-8.8,15.4-10.1c5.7-1.3,11.2,0,16.9,3.7c5.6,3.7,11.3,9.7,17.7,18.2l-5.3,4c-6.2-8.3-11.4-13.6-16-16.7
		c-4.5-3-8.2-3.6-11.7-2.8C1530.6,1730.9,1526.7,1733.5,1522.2,1738.3z M1335.1,1735.9c-3.1,5.2-5.4,14.9-5.4,30.6h-6.7
		c0-16.1,2.3-27.2,6.3-34c2-3.4,4.6-5.9,7.7-7.2c3.1-1.3,6.4-1.2,9.5-0.1c6,2.1,11.5,8.1,15.6,15.8c4.2,7.8,7.3,17.9,8.1,29.2
		l-6.7,0.5c-0.8-10.4-3.6-19.6-7.4-26.6c-3.8-7-8.2-11.3-12-12.6c-1.8-0.6-3.3-0.6-4.7,0C1338.2,1732,1336.6,1733.3,1335.1,1735.9z
		 M1692.8,1801.7l-1.7-75.2l6.7-0.2l1.7,75.2L1692.8,1801.7z M1547,1766.1l8.4-6.7l4.2,5.2l-8.3,6.7L1547,1766.1z M1521.1,1767.5
		c-1.6-0.3-3.9-0.1-7.3,1.5l-2.8-6.1c4.3-2,8-2.6,11.3-2c3.2,0.6,5.6,2.2,7.5,3.7c0.5,0.4,1.1,0.9,1.6,1.3c0.3,0.3,0.6,0.5,0.8,0.7
		c0.7,0.6,1.3,1,1.8,1.3c0.8,0.4,1.5,0.6,2.7,0l2.7,6.1c-3.2,1.4-6.1,1-8.5-0.3c-1.1-0.6-2.1-1.3-2.9-2c-0.4-0.4-0.8-0.7-1.1-0.9
		c-0.4-0.3-0.8-0.6-1.2-1C1524.1,1768.6,1522.7,1767.8,1521.1,1767.5z M1711,1784.7c-2.4-1.6-4-4.1-5.1-7l6.2-2.5
		c0.9,2.3,1.8,3.4,2.5,3.8c0.6,0.4,1.5,0.6,3.3,0.2c1.9-0.5,4.5-1.7,8-4c3.5-2.2,7.6-5.3,12.7-9.2l4.1,5.2c-5.1,4-9.5,7.3-13.2,9.6
		c-3.7,2.4-7,4-9.9,4.8C1716.5,1786.5,1713.6,1786.4,1711,1784.7z M1364.5,1795c0.4-0.5,0.7-1.5,0.8-3.1l6.7,0.5
		c-0.2,2.4-0.8,4.6-1.9,6.4c-1.2,1.8-2.9,3-4.7,3.6c-3.5,1.2-7.7,0.5-11.3-0.7c-3.7-1.3-7.6-3.4-10.8-5.6c-3.2-2.2-6.1-4.7-7.8-6.9
		l5.3-4.1c1.1,1.5,3.4,3.5,6.3,5.5c2.9,2,6.2,3.7,9.2,4.8c3.2,1.1,5.5,1.2,6.9,0.8C1363.7,1795.8,1364.2,1795.5,1364.5,1795z"/>
	<path class="st21" d="M1610,1829.4l-125,8.6c1.2-4.6,2.8-8,4.8-8.4c41.2-8.4,63.9-12.9,92.6-12.6
		C1591.6,1817.1,1601.8,1822.6,1610,1829.4z"/>
	<path class="st22" d="M1623,1855.5c-13.7-7.6-34.7-12.5-58.2-12.5c-37.4,0-68.4,12.3-73.8,28.3
		C1518.3,1876.1,1608.5,1870.8,1623,1855.5z"/>
	<path class="st23" d="M1546.3,729.1c-3.4,200.4-4.5,308.3,9.4,427.4l-6.6,0.8c-14-119.7-12.9-228-9.5-428.3L1546.3,729.1z
		 M1633.6,1065.1V897.7h6.7v167.5H1633.6z M2145,937.9c-186.3,450.7-281.2,716.1-437,1207.2l-6.4-2
		c155.9-491.3,250.8-756.9,437.2-1207.7L2145,937.9z M1927,1283l102.3-219.2l6.1,2.8L1933,1285.8L1927,1283z M1101.7,1249.3
		l66.7,189.2l-6.3,2.2l-66.7-189.2L1101.7,1249.3z M1037.1,1296.4c166,374.6,256.3,560.8,409.7,830.5l-5.8,3.3
		c-153.6-269.9-244-456.3-410-831L1037.1,1296.4z M2015,1847.2L1757.5,2200l-5.4-3.9l257.5-352.8L2015,1847.2z M1915.1,1893.9
		c0,0-0.1,0.4-0.1,0.9h6.7c0,0.5-0.1,1-0.2,1.1c-0.1,0.2-0.1,0.3-0.2,0.4c-0.1,0.2-0.2,0.5-0.3,0.7c-0.2,0.5-0.6,1.1-1,1.8
		c-0.8,1.5-2,3.5-3.4,6.1c-3,5.2-7.3,12.5-12.6,21.4c-10.6,17.9-25.3,42.5-41.7,69.6c-32.7,54.3-71.9,119-98,162l-5.7-3.5
		c26.1-43,65.3-107.7,98-162c16.3-27.1,31-51.7,41.6-69.6c5.3-8.9,9.6-16.2,12.5-21.4c1.5-2.6,2.6-4.6,3.4-6
		c0.4-0.7,0.7-1.2,0.8-1.6c0.1-0.2,0.1-0.3,0.1-0.3C1915.2,1893.8,1915.2,1893.8,1915.1,1893.9L1915.1,1893.9z M1915.2,1893.8
		L1915.2,1893.8C1915.2,1893.8,1915.2,1893.8,1915.2,1893.8z M1099.8,1901.9l279.2,289.3l-4.8,4.6l-279.2-289.3L1099.8,1901.9z
		 M1305.1,2022.7c48.7,41.3,106.1,92.2,141.2,127.9l-4.8,4.7c-34.9-35.4-92.1-86.2-140.8-127.5c-24.3-20.6-46.5-38.9-62.7-51.6
		c-8.1-6.4-14.7-11.3-19.2-14.5c-2.3-1.6-4-2.7-5.1-3.3c-0.6-0.3-0.8-0.4-0.8-0.4c0,0,0.1,0,0.2,0.1c0.1,0,0.4,0,0.7,0
		c0.8-0.1,2-0.7,2.5-2.1l-6.3-2.2c0.5-1.6,1.9-2.2,2.9-2.4c0.8-0.1,1.5,0,1.8,0.1c0.7,0.2,1.5,0.6,2.2,1c1.5,0.8,3.4,2.1,5.8,3.7
		c4.7,3.3,11.4,8.4,19.6,14.8C1258.4,1983.8,1280.7,2002.1,1305.1,2022.7z"/>
	<path class="st24" d="M1546.3,2479.4c-2.7,2.8-5.6,5.6-8.6,8.7l-4.7-4.7c2.9-2.9,5.7-5.8,8.4-8.5c14.7-14.8,26.3-26.6,40.8-34.1
		c17.4-9,38.6-11.9,73.7-8.2l-0.7,6.6c-34.5-3.6-54.2-0.7-69.9,7.5C1571.8,2453.7,1561.1,2464.6,1546.3,2479.4z M1595.1,2495.4
		c-19,3.5-35.9,11-47.7,25.2l-5.1-4.2c13.1-15.8,31.8-23.8,51.6-27.5c19.9-3.7,41.3-3.1,60.3-1.4l-0.6,6.6
		C1634.8,2492.4,1614.1,2491.9,1595.1,2495.4z M1575.9,2545.1c-8,0.4-14.3,2.1-18.5,5.4l-4.1-5.2c5.8-4.5,13.7-6.3,22.2-6.8
		c8.6-0.4,18.3,0.5,28.2,1.9c6.9,1,14.1,2.2,21,3.5c2.9,0.5,5.8,1,8.6,1.5c9.6,1.6,18.3,2.9,25.7,3.1l-0.2,6.6
		c-7.8-0.2-17-1.6-26.6-3.2c-2.9-0.5-5.8-1-8.7-1.5c-6.9-1.2-13.8-2.4-20.7-3.4C1593.1,2545.5,1583.9,2544.6,1575.9,2545.1z"/>
</g>
</svg>
