<svg xmlns="http://www.w3.org/2000/svg" viewBox="0 0 4680 3120"><defs><style>.cls-1,.cls-26{fill:#fff;}.cls-1{opacity:0;}.cls-2{fill:#edf1fd;}.cls-3{fill:#dee7ff;}.cls-4{fill:#7a2fd1;}.cls-5{fill:#ac64f2;}.cls-6{fill:#ebdeff;}.cls-7{fill:#fff4bd;}.cls-8{fill:#b8ccff;}.cls-9{fill:#a4c0ff;}.cls-10{fill:#fd8;}.cls-11{fill:#e6d2ff;}.cls-12{fill:#1f296f;}.cls-13{fill:#fff099;}.cls-14{fill:#f7c75c;}.cls-15{fill:#8c44e0;}.cls-16{fill:#bd8fff;}.cls-17{fill:#d1a9ff;}.cls-18{fill:#e7d7ff;}.cls-19{fill:#f8f3ff;}.cls-20{fill:#ffdf8f;}.cls-21{fill:#6cd8ba;}.cls-22{fill:#f29079;}.cls-23{fill:#854b25;}.cls-24{fill:#e4c5b2;}.cls-25{fill:#121f3a;}.cls-27{fill:#2f419b;}.cls-28{fill:#f5ae99;}.cls-29{fill:#3d2d2d;}.cls-30{fill:#e07b63;}.cls-31{fill:#f76f61;}.cls-32{fill:#e54c45;}.cls-33{fill:#7f49bc;}.cls-34{fill:#dbc0f9;}.cls-35{opacity:0.9;}.cls-36{fill:#fcfaff;}.cls-37{fill:#efe3ff;}.cls-38{fill:#461b89;}.cls-39{fill:#308970;}.cls-40{fill:#216d55;}.cls-41{fill:#62ccab;}.cls-42{fill:#97fcdc;}.cls-43{fill:#46b28b;}.cls-44{fill:#4fc19b;}.cls-45{fill:#2a4a7c;}.cls-46{fill:#304e89;}.cls-47{fill:#486daa;}.cls-48{fill:#e08026;}.cls-49{fill:#ef6354;}.cls-50{fill:#ce3b30;}.cls-51{fill:#97b7ff;}.cls-52{fill:#597de2;}.cls-53{fill:#7da5ff;}.cls-54{fill:#4c65bf;}.cls-55{fill:#c5d8ff;}.cls-56{fill:#a9c8ff;}.cls-57{fill:#c0d4ff;}</style></defs><title>07</title><g id="_07" data-name="07"><rect id="_07-2" data-name="07" class="cls-1" width="4680" height="3120"/><path class="cls-2" d="M3788.78,1635H1417.36c-1.79-18-2.65-35.83-2.71-53.48-1.52-270,177.75-454.33,404.89-520.63,59.23-17.26,107.94-59.63,132-116.48,67.22-158.91,257.87-465.83,740.43-522.88a1392.76,1392.76,0,0,1,162.22-9.19q13.78,0,27.37.2c77.27,1.25,148.93,7.6,215.36,18.24q14.47,2.39,28.56,5c24.79,4.63,48.85,9.78,72.12,15.67q5.66,1.29,11.3,2.77C3399.49,503.41,3540,591.86,3641.76,696a827.87,827.87,0,0,1,120.45,157.59c81.24,137.76,113.36,282.13,116.14,391.34C3880.86,1343.33,3858.72,1487,3788.78,1635Z"/><path class="cls-3" d="M2881.57,412.52,2373.29,1635H2187.41L2692,421.51a1392.76,1392.76,0,0,1,162.22-9.19Q2868,412.32,2881.57,412.52Z"/><path class="cls-3" d="M3762.21,853.63,3437.3,1635h-186L3641.76,696A827.87,827.87,0,0,1,3762.21,853.63Z"/><path class="cls-3" d="M3197.61,451.39,2705.46,1635H2596.19L3096.93,430.76q14.47,2.39,28.56,5C3150.28,440.35,3174.34,445.5,3197.61,451.39Z"/><rect class="cls-4" x="3496.69" y="766.63" width="434.16" height="488.6" rx="30.94"/><rect class="cls-5" x="3527.78" y="766.63" width="434.16" height="488.6" rx="30.94"/><rect class="cls-2" x="3585.71" y="848.35" width="127.8" height="149.1"/><rect class="cls-6" x="3806.99" y="857.81" width="97.03" height="86.38"/><rect class="cls-2" x="3692.21" y="1058.98" width="192.88" height="150.28"/><path class="cls-7" d="M3642.51,944.2h130.16s4.74,127.79,41.42,134.89H3673.27S3642.51,1050.69,3642.51,944.2Z"/><circle class="cls-4" cx="3605.86" cy="868.08" r="10.27"/><circle class="cls-4" cx="3855.51" cy="857.81" r="10.27"/><circle class="cls-4" cx="3654.74" cy="954.94" r="5.14"/><circle class="cls-4" cx="3870.91" cy="1071.24" r="5.14"/><path class="cls-8" d="M3788.8,1635a961.71,961.71,0,0,1-66.58,118.81c-10.72,16.3-22.17,32.66-34.23,48.77a975.7,975.7,0,0,1-179,182.31q-19,14.89-39.2,29.2a1067,1067,0,0,1-116.33,71.73q-14.35,7.63-29.2,15c-103.9,51.62-226,92.82-369,118.56-9.63,1.76-19.32,3.46-29.2,5-83.91,13.69-174.85,22.12-273.3,24.36-189,4.36-350.61-5.64-488.44-26.78-9.88-1.52-19.57-3.09-29.21-4.73-147.1-24.78-266.15-62.64-361.82-109.41-10-4.85-19.69-9.88-29.2-15-45.5-24.23-85.24-50.71-119.84-78.76-11.81-9.51-23.08-19.27-33.68-29.2-60.83-56.65-102.88-118.69-130.57-182.31-7.08-16.17-13.2-32.47-18.47-48.77A554,554,0,0,1,1417.35,1635Z"/><path class="cls-9" d="M2955.26,1635v584.41c-9.63,1.76-19.32,3.46-29.2,5V1635Z"/><path class="cls-9" d="M3353.49,1635v450.82q-14.35,7.63-29.2,15V1635Z"/><rect class="cls-9" x="2526.17" y="1634.98" width="29.21" height="613.46"/><path class="cls-9" d="M2164.32,1635v587c-9.88-1.52-19.57-3.09-29.21-4.73V1635Z"/><path class="cls-9" d="M1773.29,1635v472.82c-10-4.85-19.69-9.88-29.2-15V1635Z"/><path class="cls-9" d="M3509,1984.85q-19,14.89-39.2,29.2H1624.25c-11.81-9.51-23.08-19.27-33.68-29.2Z"/><rect class="cls-10" x="1368.8" y="2543.69" width="2416.41" height="216.31" rx="101.41"/><path class="cls-5" d="M2864.93,644.51V1744.87c0,44.23-35.33,80.09-78.83,80.09H2327a199.57,199.57,0,0,0-354.48,0H1091c-38.17,0-70-27.62-77.3-64.28a84.75,84.75,0,0,1-1.52-15.81V644.51Z"/><path class="cls-11" d="M2864.91,595.83v48.71H1012.13V595.83A78.81,78.81,0,0,1,1091,517.07H2786.08A78.82,78.82,0,0,1,2864.91,595.83Z"/><rect class="cls-2" x="1089.45" y="719.16" width="1277.98" height="122.27" rx="27.19"/><path class="cls-12" d="M1138.51,741.82a32.84,32.84,0,1,0,44.35,13.79A32.79,32.79,0,0,0,1138.51,741.82Zm25.56,48.62a22.09,22.09,0,1,1,9.27-29.83A22.09,22.09,0,0,1,1164.07,790.44Z"/><rect class="cls-12" x="1168.85" y="791.3" width="9.34" height="34.23" rx="4.67" transform="translate(-241.38 638.9) rotate(-27.73)"/><rect class="cls-13" x="1190.28" y="911.71" width="945.01" height="305.6" rx="23.74"/><rect class="cls-5" x="1240.48" y="956.42" width="844.6" height="26.75" rx="13.38"/><rect class="cls-5" x="1240.48" y="1019.56" width="844.6" height="26.75" rx="13.38"/><rect class="cls-5" x="1240.48" y="1082.7" width="844.6" height="26.75" rx="13.38"/><rect class="cls-5" x="1240.48" y="1145.83" width="844.6" height="26.75" rx="13.38"/><path class="cls-7" d="M2724.54,929.68v268.4a19.19,19.19,0,0,1-19.22,19.22h-485.1a19.23,19.23,0,0,1-19.26-19.22V929.68a19.23,19.23,0,0,1,19.26-19.21h485.1A19.19,19.19,0,0,1,2724.54,929.68Z"/><path class="cls-14" d="M2561.79,1217.3H2220.22c-18.14,0-19.26-8.58-19.26-19.22V1043.21c32-17.78,80.9-36.31,140.75-31.51,56.8,4.57,115.24,62.1,158.37,116.35A864.18,864.18,0,0,1,2561.79,1217.3Z"/><path class="cls-14" d="M2724.54,1132.19v65.89c0,10.64-14.64,19.22-32.79,19.22h-242.9V1165s20-18.34,51.23-36.91c32.56-19.43,77.4-39.09,124.46-38.48C2667.29,1090.18,2700.83,1110.54,2724.54,1132.19Z"/><circle class="cls-14" cx="2516.58" cy="994.09" r="45.21"/><path class="cls-15" d="M1278.5,782.15V800a4.27,4.27,0,0,1-1.19,3.2,4.57,4.57,0,0,1-3.31,1.17,4.68,4.68,0,0,1-3.35-1.17,4.18,4.18,0,0,1-1.23-3.2V782.15q0-3.85-1.57-5.63a6.19,6.19,0,0,0-4.9-1.79,8.28,8.28,0,0,0-6.29,2.48,9.15,9.15,0,0,0-2.37,6.61V800a4.18,4.18,0,0,1-1.23,3.2,4.68,4.68,0,0,1-3.35,1.17,4.53,4.53,0,0,1-3.3-1.17,4.24,4.24,0,0,1-1.2-3.2V756.56a3.92,3.92,0,0,1,1.27-3,4.69,4.69,0,0,1,3.31-1.16,4.81,4.81,0,0,1,3.27,1.08,3.8,3.8,0,0,1,1.23,3v16.94a12,12,0,0,1,4.84-4.33,15.35,15.35,0,0,1,6.87-1.49Q1278.51,767.54,1278.5,782.15Z"/><path class="cls-15" d="M1309.84,800.91a2.93,2.93,0,0,1-1.42,2.65,6.7,6.7,0,0,1-4,.76l-2-.14q-12.21-.87-12.21-13.09V775.24h-3.64a4.61,4.61,0,0,1-3-.87,3.57,3.57,0,0,1,0-5.08,4.56,4.56,0,0,1,3-.88h3.64v-6.69a4.08,4.08,0,0,1,1.24-3.13,4.68,4.68,0,0,1,3.34-1.16,4.59,4.59,0,0,1,3.27,1.16,4.08,4.08,0,0,1,1.24,3.13v6.69h6.18a4.59,4.59,0,0,1,3,.88,3.6,3.6,0,0,1,0,5.08,4.64,4.64,0,0,1-3,.87h-6.18v16.51q0,5.38,4.94,5.74l2,.15C1308.63,797.79,1309.84,798.87,1309.84,800.91Z"/><path class="cls-15" d="M1336.16,800.91a3,3,0,0,1-1.42,2.65,6.73,6.73,0,0,1-4,.76l-2-.14q-12.21-.87-12.21-13.09V775.24h-3.64a4.64,4.64,0,0,1-3-.87,3.6,3.6,0,0,1,0-5.08,4.59,4.59,0,0,1,3-.88h3.64v-6.69a4.11,4.11,0,0,1,1.23-3.13,4.72,4.72,0,0,1,3.35-1.16,4.62,4.62,0,0,1,3.27,1.16,4.11,4.11,0,0,1,1.23,3.13v6.69h6.18a4.57,4.57,0,0,1,3,.88,3.57,3.57,0,0,1,0,5.08,4.63,4.63,0,0,1-3,.87h-6.18v16.51q0,5.38,5,5.74l2,.15C1335,797.79,1336.16,798.87,1336.16,800.91Z"/><path class="cls-15" d="M1369.49,769.87a15.4,15.4,0,0,1,5.6,6.57,22.81,22.81,0,0,1,2,9.78,22.06,22.06,0,0,1-2,9.67,14.66,14.66,0,0,1-13.78,8.65,14,14,0,0,1-6.76-1.6,11.18,11.18,0,0,1-4.58-4.43v14.83a3.78,3.78,0,0,1-1.23,3,4.77,4.77,0,0,1-3.27,1.09,4.68,4.68,0,0,1-3.31-1.16,3.93,3.93,0,0,1-1.28-3V772a4.13,4.13,0,0,1,1.2-3.12,4.44,4.44,0,0,1,3.24-1.17,4.56,4.56,0,0,1,3.27,1.17,4.08,4.08,0,0,1,1.24,3.12v1.82a11.21,11.21,0,0,1,4.61-4.62,14.2,14.2,0,0,1,6.87-1.63A14.74,14.74,0,0,1,1369.49,769.87Zm-3.89,24.68q2.4-2.94,2.4-8.33t-2.4-8.57a9,9,0,0,0-13.41-.08c-1.58,2-2.36,4.83-2.36,8.51s.78,6.45,2.36,8.43a8.07,8.07,0,0,0,6.72,3A8.16,8.16,0,0,0,1365.6,794.55Z"/><path class="cls-15" d="M1384.65,801.42a4.33,4.33,0,0,1-2.32-3.93,3.47,3.47,0,0,1,.79-2.36,2.55,2.55,0,0,1,2-.91,8.15,8.15,0,0,1,3.42,1.16,31.48,31.48,0,0,0,4.25,1.68,17.57,17.57,0,0,0,4.9.58,9.34,9.34,0,0,0,4.77-1,3.14,3.14,0,0,0,1.7-2.83,2.75,2.75,0,0,0-.69-2,6.34,6.34,0,0,0-2.47-1.34,48.42,48.42,0,0,0-5.42-1.42q-6.46-1.3-9.26-3.71a8.25,8.25,0,0,1-2.8-6.62,9.57,9.57,0,0,1,1.89-5.78,12.27,12.27,0,0,1,5.2-4,19,19,0,0,1,7.52-1.41,22.49,22.49,0,0,1,5.89.76,17.9,17.9,0,0,1,5.09,2.22,4.39,4.39,0,0,1,2.33,3.85,3.77,3.77,0,0,1-.8,2.44,2.47,2.47,0,0,1-2,1,3.9,3.9,0,0,1-1.56-.33,20.85,20.85,0,0,1-1.93-1,28.8,28.8,0,0,0-3.63-1.63,11.18,11.18,0,0,0-3.78-.55,7.32,7.32,0,0,0-4.26,1.09,3.45,3.45,0,0,0-1.56,3,3,3,0,0,0,1.6,2.77,23,23,0,0,0,6.18,1.88,35.33,35.33,0,0,1,7.63,2.33,9,9,0,0,1,4,3.27,9.59,9.59,0,0,1,1.2,5,9.31,9.31,0,0,1-4.11,7.92q-4.11,3-10.94,3Q1389.52,804.54,1384.65,801.42Z"/><path class="cls-15" d="M1420.27,777a5.35,5.35,0,0,1-1.52-3.88,5.22,5.22,0,0,1,5.38-5.39,5.23,5.23,0,0,1,5.38,5.39A5.32,5.32,0,0,1,1428,777a5.52,5.52,0,0,1-7.71,0Zm0,25.89a5.74,5.74,0,0,1,0-7.78,5.54,5.54,0,0,1,7.71,0,5.71,5.71,0,0,1,0,7.78,5.54,5.54,0,0,1-7.71,0Z"/><path class="cls-15" d="M1442,808.47a3.58,3.58,0,0,1-2.11.65,3.82,3.82,0,0,1-2.58-1,3.2,3.2,0,0,1-1.12-2.51,4.33,4.33,0,0,1,.21-1.32l16.87-52.85a3.7,3.7,0,0,1,1.38-2,3.59,3.59,0,0,1,2.11-.66,3.83,3.83,0,0,1,2.58,1,3.19,3.19,0,0,1,1.13,2.51,4.24,4.24,0,0,1-.22,1.31l-16.87,52.86A3.77,3.77,0,0,1,1442,808.47Z"/><path class="cls-15" d="M1461.35,808.47a3.61,3.61,0,0,1-2.11.65,3.82,3.82,0,0,1-2.58-1,3.21,3.21,0,0,1-1.13-2.51,4.06,4.06,0,0,1,.22-1.32l16.87-52.85a3.7,3.7,0,0,1,1.38-2,3.59,3.59,0,0,1,2.11-.66,3.87,3.87,0,0,1,2.58,1,3.18,3.18,0,0,1,1.12,2.51,4,4,0,0,1-.22,1.31l-16.86,52.86A3.83,3.83,0,0,1,1461.35,808.47Z"/><rect class="cls-15" x="1500.64" y="774.15" width="797.11" height="17.88" rx="8.94"/><rect class="cls-15" x="1685.38" y="1364.41" width="1064.57" height="312.55" rx="61.17"/><rect class="cls-2" x="1660.78" y="1337.06" width="1064.57" height="312.55" rx="44.52"/><rect class="cls-16" x="1727.88" y="1397.64" width="930.39" height="23.26" rx="11.63"/><rect class="cls-16" x="1727.88" y="1454.89" width="930.39" height="23.26" rx="11.63"/><rect class="cls-16" x="1727.88" y="1512.15" width="930.39" height="23.26" rx="11.63"/><rect class="cls-16" x="1727.88" y="1569.4" width="930.39" height="23.26" rx="11.63"/><path class="cls-15" d="M1615.28,1378.87v247a74.22,74.22,0,0,1-74.21,74.21h-527.4a84.67,84.67,0,0,1-1.52-15.81V1304.59h528.92A74.23,74.23,0,0,1,1615.28,1378.87Z"/><rect class="cls-17" x="718.05" y="1274.6" width="871.46" height="395.48" rx="56.76"/><rect class="cls-18" x="765.5" y="1328.35" width="199.19" height="36.34" rx="18.17"/><rect class="cls-18" x="1180.03" y="1328.35" width="199.19" height="36.34" rx="18.17"/><rect class="cls-19" x="1180.03" y="1405.07" width="362.04" height="211.3" rx="20.19"/><rect class="cls-19" x="765.5" y="1405.07" width="362.04" height="211.3" rx="20.19"/><circle class="cls-20" cx="978.69" cy="1534.06" r="54.61"/><path class="cls-21" d="M765.5,1521.69s65.79-69.38,100.48-65.79,174.66,166.28,174.66,166.28H787.28a21.78,21.78,0,0,1-21.78-21.78Z"/><path class="cls-21" d="M959.29,1569.54s65.8-59,98.1-58.82,71.77,52.84,71.77,52.84v36.84a21.78,21.78,0,0,1-21.78,21.78H959.29Z"/><path class="cls-16" d="M1332.37,1475.58v78.1a6.81,6.81,0,0,0,10.6,5.66l58.24-39a6.82,6.82,0,0,0,0-11.32l-58.24-39A6.81,6.81,0,0,0,1332.37,1475.58Z"/><ellipse class="cls-14" cx="3289.21" cy="2651.92" rx="424.3" ry="61.48"/><polygon class="cls-22" points="3248.4 2540.55 3243.45 2518.63 3259.01 2442.96 3162.13 2442.96 3147.15 2558.22 3248.4 2540.55"/><polygon class="cls-22" points="3444.91 2559.36 3428.65 2451.86 3526.23 2451.86 3521.59 2557.1 3444.91 2559.36"/><path class="cls-23" d="M3568,2661.15a33.16,33.16,0,0,1-13,20.72H3415.42c-4.52,0-8.48-3.34-9.76-8.18l-.66-2.6a99.16,99.16,0,0,1-.76-9.94A69.6,69.6,0,0,1,3407,2638c3.86-12.68,10.79-20,14.65-28,5.14-10.6,12.93-50.31,15.75-65.24a6.65,6.65,0,0,1,6.32-5.71l80.85.22a6.46,6.46,0,0,1,5.88,4.3l18.66,47.26a329.74,329.74,0,0,1,15,40.14c1.1,3.68,2.16,7.51,3.14,11.41A42.81,42.81,0,0,1,3568,2661.15Z"/><path class="cls-24" d="M3518.56,2591.26c-1.73,6.61-66.64,6.06-65,0,1.24-4.52,2.49-21.5,3-29.87q.33-5,1-9.9l1.58-12.45h52.43l1.54,11.18c.51,3.72.91,7.45,1.16,11.2C3515.82,2583.9,3519.29,2588.5,3518.56,2591.26Z"/><path class="cls-24" d="M3568,2661.15a33.16,33.16,0,0,1-13,20.72H3415.42c-4.52,0-8.48-3.34-9.76-8.18l-.66-2.6a99.16,99.16,0,0,1-.76-9.94A69.6,69.6,0,0,1,3407,2638s31.41-28.87,79.12-27.53,78,20.51,78,20.51c1.1,3.68,2.16,7.51,3.14,11.41A42.81,42.81,0,0,1,3568,2661.15Z"/><path class="cls-25" d="M3568,2661.15a33.16,33.16,0,0,1-13,20.72H3415.42c-4.52,0-8.48-3.34-9.76-8.18l-.66-2.6a99.16,99.16,0,0,1-.76-9.94Z"/><path class="cls-26" d="M3463.52,2577.08c-3.29.36-5.7,3.62-5.39,7.31s3.24,6.37,6.53,6,5.7-3.62,5.39-7.29S3466.81,2576.73,3463.52,2577.08Zm.89,10.46a3.54,3.54,0,0,1-3.7-3.43,3.71,3.71,0,0,1,3.06-4.15,3.52,3.52,0,0,1,3.7,3.43A3.71,3.71,0,0,1,3464.41,2587.54Z"/><path class="cls-26" d="M3465.55,2560.82c-3.29.35-5.7,3.62-5.39,7.3s3.23,6.37,6.53,6,5.7-3.61,5.39-7.29S3468.84,2560.47,3465.55,2560.82Zm.89,10.45a3.52,3.52,0,0,1-3.7-3.42,3.72,3.72,0,0,1,3.06-4.16,3.53,3.53,0,0,1,3.7,3.44A3.71,3.71,0,0,1,3466.44,2571.27Z"/><path class="cls-26" d="M3466.71,2543.92c-3.29.35-5.7,3.62-5.39,7.3s3.23,6.38,6.53,6,5.7-3.62,5.39-7.3S3470,2543.57,3466.71,2543.92Zm.89,10.45a3.52,3.52,0,0,1-3.7-3.42,3.72,3.72,0,0,1,3.06-4.16,3.54,3.54,0,0,1,3.7,3.44A3.7,3.7,0,0,1,3467.6,2554.37Z"/><path class="cls-26" d="M3501.14,2583.63c-.16,3.69,2.37,6.83,5.68,7s6.11-2.65,6.28-6.33-2.37-6.85-5.67-7S3501.31,2579.94,3501.14,2583.63Zm2.59.15a3.56,3.56,0,0,1,3.56-3.61,3.66,3.66,0,0,1,3.22,4,3.56,3.56,0,0,1-3.56,3.6A3.67,3.67,0,0,1,3503.73,2583.78Z"/><path class="cls-26" d="M3498.48,2567.48c-.17,3.69,2.37,6.83,5.67,7s6.12-2.65,6.28-6.33-2.37-6.85-5.67-7S3498.65,2563.79,3498.48,2567.48Zm2.58.15a3.58,3.58,0,0,1,3.57-3.61,3.67,3.67,0,0,1,3.22,4,3.57,3.57,0,0,1-3.57,3.6A3.68,3.68,0,0,1,3501.06,2567.63Z"/><path class="cls-26" d="M3496.66,2550.66c-.17,3.68,2.37,6.83,5.67,7s6.11-2.65,6.28-6.34-2.37-6.84-5.67-7S3496.83,2547,3496.66,2550.66Zm2.58.14a3.58,3.58,0,0,1,3.57-3.61,3.68,3.68,0,0,1,3.22,4,3.58,3.58,0,0,1-3.57,3.61A3.68,3.68,0,0,1,3499.24,2550.8Z"/><path class="cls-12" d="M3123.25,2476.67a22.38,22.38,0,0,0,13.13,19.3c59.59,26.75,107.81,22.61,133.58,16.77,3.41-.78,6.43-1.59,9-2.35a15.94,15.94,0,0,0,11.43-15.31v-514l103.87,510a14.69,14.69,0,0,0,12.47,11.69c80.81,10.18,132-4,152.91-11.87a14.68,14.68,0,0,0,9.27-15.75l-81.85-600.53-30.73-175.28-14.57-83.08-317.88,30.47C3094.55,1852.84,3118.81,2385.68,3123.25,2476.67Z"/><path class="cls-27" d="M3233.33,1845.85c27.9,66.88,36.58,666.89,36.58,666.89h.05c3.62-.83,6.8-1.68,9.5-2.49a15.3,15.3,0,0,0,11-14.67V1984.7l-.1-2.21-56.59-203a203.67,203.67,0,0,1-12.43-51.08S3205.43,1779,3233.33,1845.85Z"/><path class="cls-27" d="M3550.57,2494l-116.19-754.55c-61.92-27.65-70.77-74.1-70.77-74.1s-8,54.46,55.22,96.32l117,736.42Z"/><path class="cls-23" d="M3282.06,2667v1c.1,7.64-6.81,13.86-15.34,13.86H3027.15c-5.68,0-10.26-4.13-10.19-9.22l0-2.93c-.07-.93-.1-1.83-.1-2.69-.77-37.29,44.55-41.18,44.55-41.18l.6-.42L3097,2601l22.13-15.48a14.41,14.41,0,0,0,5.58-7.39l6.08-43.37h122.58a7.09,7.09,0,0,1,6.58,4c5.68,13,23,78.24,22.32,91.79C3281.83,2639.91,3281.93,2655.47,3282.06,2667Z"/><path class="cls-24" d="M3195.58,2578c-9.06,23.65-49.73,41.15-60.26,42.5S3097,2601,3097,2601l22.13-15.48a14.41,14.41,0,0,0,5.58-7.39l6.08-43.37h42.74C3188.19,2538.57,3199.09,2568.78,3195.58,2578Z"/><path class="cls-24" d="M3075,2681.87h-47.82c-5.68,0-10.26-4.13-10.19-9.22l0-2.93c-3-39.8,44.45-43.87,44.45-43.87l.6-.42C3067.55,2633.39,3074.2,2649.58,3075,2681.87Z"/><path class="cls-25" d="M3282.06,2667v1c.1,7.64-6.81,13.86-15.34,13.86H3027.15c-5.68,0-10.26-4.13-10.19-9.22l0-2.93c-.07-.93-.1-1.83-.1-2.69Z"/><path class="cls-26" d="M3145.62,2596.07c-3.56,1-5.59,4.32-4.52,7.51s4.82,5,8.38,4,5.59-4.31,4.52-7.5S3149.18,2595.12,3145.62,2596.07Zm3,9.06a3.9,3.9,0,0,1-4.76-2.3,3.39,3.39,0,0,1,2.56-4.27,3.93,3.93,0,0,1,4.77,2.31A3.39,3.39,0,0,1,3148.65,2605.13Z"/><path class="cls-26" d="M3162.5,2581.68c-3.56,1-5.59,4.31-4.52,7.51s4.82,5,8.38,4,5.59-4.32,4.52-7.5S3166.06,2580.72,3162.5,2581.68Zm3,9.06a3.92,3.92,0,0,1-4.76-2.3,3.38,3.38,0,0,1,2.56-4.27,3.93,3.93,0,0,1,4.77,2.3A3.4,3.4,0,0,1,3165.53,2590.74Z"/><path class="cls-26" d="M3176.83,2565.36c-3.57.95-5.59,4.31-4.52,7.51s4.81,5,8.38,4,5.58-4.32,4.52-7.5S3180.39,2564.4,3176.83,2565.36Zm3,9.06a3.92,3.92,0,0,1-4.76-2.3,3.39,3.39,0,0,1,2.57-4.27,3.92,3.92,0,0,1,4.76,2.3A3.39,3.39,0,0,1,3179.85,2574.42Z"/><path class="cls-28" d="M3150,1122.75c-5.53,33.83-71.22,65.73-71.22,65.73-4.13-8.36-8.91-17-13.67-25.14-12.47-21.53-24.9-39.59-24.9-39.59l67.5-61.34,17,37.14Z"/><path class="cls-22" d="M3126.07,1102.89c-4.82,18.94-20.81,39.7-60.92,60.45-12.47-21.53-24.9-39.59-24.9-39.59l67.5-61.34Z"/><path class="cls-28" d="M2943.2,983.18l8.21,50a18.52,18.52,0,0,1-.88,9.33l-10.92,30a5.62,5.62,0,0,0,3.7,7.32l12.35,3.63a6.91,6.91,0,0,1,4.86,5.38c3.22,17.64,20.26,83.9,90,47.78,0,0,45.78-27.57,60.49-72s-6.92-97.14-6.92-97.14L3027,921.08l-65.43,18a27.58,27.58,0,0,0-20.05,29.95Z"/><path class="cls-29" d="M2995.51,998.32s-15.1-13.27-29.22-1.49.38,6.56,9.82,5.52S2998,1005.12,2995.51,998.32Z"/><ellipse class="cls-22" cx="3014.17" cy="1055.57" rx="27.56" ry="24.76" transform="translate(1084.12 3600.05) rotate(-72.12)"/><ellipse cx="2980.42" cy="1029.59" rx="7.57" ry="9.69" transform="translate(-33.63 103.05) rotate(-1.97)"/><path class="cls-30" d="M2982.29,1111.37c.44-.08.89-.17,1.34-.29,5.22-1.34,9.58-5.29,13-11.76a2.45,2.45,0,1,0-4.34-2.27c-2.7,5.16-6,8.28-9.79,9.28a13.16,13.16,0,0,1-9.56-1.58,2.45,2.45,0,0,0-2.71,4.08A18.31,18.31,0,0,0,2982.29,1111.37Z"/><path class="cls-29" d="M2949.05,885.16a16.75,16.75,0,0,1-7.42,9.6c-10.76,6.39-31.82,22.45-28.25,48.74,4.39,32.34,51.43,45.81,76,41a16.57,16.57,0,0,1,11.44,1.65l36.5,20.66a6.06,6.06,0,0,1,3,4.49c.76,5.66,3.57,18.35,13.72,28.35,15.71,15.48,29.1,27.41,53.29,34.42,0,0,25.74-1.46,26.87-24.91s43.32-64.4,36.65-111.08c-6.44-45-39-77-90.52-72a19.85,19.85,0,0,1-11.17-2.33c-14.84-7.89-57.7-27.27-92.8-9.71C2958.28,863,2951.53,877.05,2949.05,885.16Z"/><ellipse class="cls-28" cx="3075.4" cy="1033.46" rx="32.07" ry="24.94" transform="translate(1147.6 3643) rotate(-72.12)"/><path class="cls-30" d="M3066,1051.44a1.62,1.62,0,0,1-1.08-1.17c-5.18-21.68,10.3-31.88,10.46-32a1.63,1.63,0,0,1,1.75,2.74c-.56.36-13.67,9.11-9,28.48a1.62,1.62,0,0,1-1.2,2A1.55,1.55,0,0,1,3066,1051.44Z"/><path class="cls-28" d="M2841.38,1290.12l-31.51,63.49c-15.38-18.36-56.58-48.53-56.58-48.53s-34.66-15.63-54.65-30.84c-12.66-9.69-21.63-28.11-27.08-45.13a148.34,148.34,0,0,1-6-26.12c-2.36-19,2.18-28,2.18-28s-.67-16.54,3.09-27.87a22.1,22.1,0,0,1,1.82-4.42c5.75-10.66,15.2,6.67,15.2,6.67,9.15-.25,18,21.81,33,39.56,1.15,1.33,2.31,2.6,3.52,3.82,14.78,14.9,34.35,20.23,34.35,20.23s-1.45,44.17,26.17,43.2a35.82,35.82,0,0,0,20.9-7.33c1.4,9.87,2.25,17.57,2.25,17.57Z"/><path class="cls-22" d="M2752.36,1265.45c-18.48-20.25,6.34-52.47,6.34-52.47S2757.1,1270.64,2752.36,1265.45Z"/><path class="cls-31" d="M3465.91,1709.21c-139.74,102.72-349.64,46.42-349.64,46.42-12.14-16-2.48-41.36-4.49-94.57s-33.23-212.83-33.23-212.83c-109.37,93.82-220.6-4.63-275.77-69.34-2.58-2.9-4.09-4.82-4.63-5.44a.77.77,0,0,0-.14-.25,459.51,459.51,0,0,1-30.84-41.36c-7.19-51.23,49.86-74,49.86-74l127.55,66.93a26,26,0,0,0,32.66-7c11.52-14.7,29.16-40,49.86-79.41C3064,1168,3144.67,1102,3144.67,1102s134.42,32.58,222.17,201.33C3465.68,1493.43,3465.91,1709.21,3465.91,1709.21Z"/><path class="cls-28" d="M3030.71,1695.62a9.15,9.15,0,0,0,1.27,2c2.75,3.4,10.28,8.71,25.76-5.26,20.44-18.44,29.89-22.17,29.89-22.17s7.95,41.41,1.8,52.72-40.31,55.62-33.08,63.24c0,0-7.58,17.69-.82,19.23,4.54,1,71.47-47.83,73.57-49.36-1.62,1.49-51.49,47.16-51.57,54.91s56.56-35.2,56.56-35.2l12.74-12.5a15.74,15.74,0,0,0,4.26-7.49l16.84-68.86,1.36-3.36,7.61-18.93,20.2-16.21s-13.24-47-59.59-45.28c0,0-40.73,21.07-58.62,34.72S3030.71,1695.62,3030.71,1695.62Z"/><path class="cls-22" d="M3124.69,1742.07s-39,30.13-55.29,42.37-16.07,19.17-16.07,19.17-9.65-4.48,14.64-25S3124.69,1742.07,3124.69,1742.07Z"/><path class="cls-22" d="M3056.92,1785.15l59-54.21s-11.07,2.65-24.58,17.37S3056.92,1785.15,3056.92,1785.15Z"/><path class="cls-22" d="M3030.71,1695.62a9.15,9.15,0,0,0,1.27,2c12.24-11.47,35.59-40,52.49-54.72,21.87-19,39.48-6.71,60.67,7.39,13.1,8.72,20.45,23.34,24.15,33.23l7.61-18.93,20.2-16.21s-13.24-47-59.59-45.28c0,0-40.73,21.07-58.62,34.72S3030.71,1695.62,3030.71,1695.62Z"/><path class="cls-32" d="M3313.72,1549.53c-30.85,47.9-81.27,103.22-108.84,114.56-6.12,2.48-11.05,2.84-14.44.49,0,0-6.18-13.66-22.66-30.17a172.94,172.94,0,0,0-41.45-30.57s-10.12-4.54,15.94-40.76a472.77,472.77,0,0,0,42.17-72s-1.5-15.42,8.73-18l-14.24-72.19s-31.92-54.62,13.46-128.16c29.85-48.43,47.82-76.67,65.8-82.67a18.7,18.7,0,0,1,22.47,8.58.25.25,0,0,1,.07.12c8.93,16.17,21.94,41,34.73,81.76C3342.55,1366.86,3351.27,1491.22,3313.72,1549.53Z"/><path class="cls-32" d="M3130.66,1071.93s-62.24,67.59-77.45,98.4a20,20,0,0,0-.24,17.23l14.91,32.53a7.6,7.6,0,0,0,12.6,1.91c17.34-19.57,59.17-68.22,77.81-102.75a26,26,0,0,0-8.05-33.57Z"/><path class="cls-32" d="M3078.55,1448.23c-109.37,93.82-220.6-4.63-275.77-69.34,15.88,17.51,70.71,69.7,160.82,67.28,63.51-1.74,83.44-76,89-137.09a1.37,1.37,0,0,1,2.74,0C3061.91,1382.25,3078.55,1448.23,3078.55,1448.23Z"/><path class="cls-33" d="M2679.32,1054l86.86,238.65a6,6,0,0,1,.13,3.63c-.76,2.89-3.45,5.66-7.21,7l-165.24,60.14c-5.34,2-10.84.33-12.27-3.61l-86.86-238.64c-1.43-3.94,1.74-8.71,7.08-10.66l165.24-60.14c3.76-1.37,7.6-1,10,.75A6,6,0,0,1,2679.32,1054Z"/><path class="cls-5" d="M2696.08,1048l86.82,238.53c1.44,4,1.62,7.55-3.68,9.48l-168.7,61.4c-5.3,1.93-10.77.28-12.21-3.69l-86.82-238.54c-1.45-4,1.68-8.75,7-10.68l165.4-60.2C2689.17,1042.37,2694.64,1044,2696.08,1048Z"/><path class="cls-34" d="M2777.81,1292.12l-168.7,61.4c-2.43.89-5,.13-5.61-1.69l-86.82-238.54c-.66-1.82.78-4,3.21-4.9l165.39-60.2c2.43-.88,4.95-.12,5.61,1.7l86.81,238.53C2778.37,1290.24,2780.24,1291.24,2777.81,1292.12Z"/><g class="cls-35"><path class="cls-36" d="M2617.66,1072.8l-68.15,33c-9.37,4.54-14.71,13.12-12.83,20.62l33.72,134.45-53.72-147.59c-.66-1.82.78-4,3.21-4.9Z"/></g><rect class="cls-5" x="2592.54" y="1079.97" width="45.74" height="3.67" rx="1.83" transform="translate(-212.27 959.73) rotate(-20)"/><rect class="cls-5" x="2580.24" y="1090.99" width="9.79" height="3.67" rx="1.83" transform="translate(-217.86 950.05) rotate(-20)"/><path class="cls-37" d="M2777.81,1292.12l-40.4,14.7c23.71-13,18.63-20.92,18.63-20.92l-83.15-228.48c-.41-1.19-2-2.36-3.76-3.35l16.15-5.88c2.43-.88,4.95-.12,5.61,1.7l86.81,238.53C2778.37,1290.24,2780.24,1291.24,2777.81,1292.12Z"/><rect class="cls-38" x="2513.19" y="1147.95" width="8.06" height="31.73" rx="3.49" transform="translate(-246.24 931.1) rotate(-20)"/><rect class="cls-38" x="2523.31" y="1181.5" width="8.06" height="20.23" rx="3.49" transform="translate(-255.14 936.24) rotate(-20)"/><ellipse class="cls-36" cx="2556.87" cy="1111.82" rx="4.4" ry="3.24" transform="translate(-226.07 941.52) rotate(-20)"/><rect class="cls-36" x="2562.47" y="1085.2" width="114.73" height="7.42" rx="1.66" transform="translate(-214.43 961.68) rotate(-20)"/><path class="cls-28" d="M2805.75,1248.86a35.92,35.92,0,0,1-19.92,9.67c-13.67,2.06-21.85-5.41-26.6-13.4a41,41,0,0,1-5.37-23.31c.4-7.21-.16-18.15-6.47-22.85-9.86-7.28-16.3-24-11.08-26.35s50,27.86,57.22,40.44C2797.64,1220.15,2802.35,1236.26,2805.75,1248.86Z"/><ellipse class="cls-14" cx="1691.07" cy="2624.85" rx="235.54" ry="57.03"/><path class="cls-39" d="M1447.72,2491c139.41-166.64,262.48-69.71,262.48-69.71l-6.81,6.81s-69.46-41.18-139.06-14.64S1447.72,2491,1447.72,2491Z"/><path class="cls-39" d="M1570.9,2401.42s-47.51-3.47-67.86,15.74-23.83,27.5-41.3,33.17-32.73,17.91-30.11,30.57-13.57,22-4.6,41.79c-7.63,2.24-39.7-58.47,7.63-106.83C1484.75,2364.67,1570.9,2401.42,1570.9,2401.42Z"/><path class="cls-40" d="M1570.9,2401.42c-108.52,40-136.24,119-143.87,121.27-9-19.78,7.22-29.14,4.6-41.79s12.66-24.89,30.11-30.57,21-14,41.3-33.17S1570.9,2401.42,1570.9,2401.42Z"/><path class="cls-41" d="M1835.4,2195.88c-50,108.95-155.7,128.49-155.7,128.49s-17.47-14.69-37.7-39.31c55.37-29.49,105.85-75.12,111-144.28,10-133.48-67.21-189.37-92.17-203.82,19.31-26.53,43.05-46.57,72.87-39.38,67.12,16.18,86.34,159.14,86.34,159.14S1885.42,2087,1835.4,2195.88Z"/><path class="cls-21" d="M1753,2140.78c-5.19,69.16-55.67,114.79-111,144.28-34.11-41.53-76.11-111.3-55.54-186.56,0,0-5.12-49,19.4-72.2,13.61-12.91,30.87-56.2,55-89.34C1685.83,1951.41,1763.07,2007.3,1753,2140.78Z"/><path class="cls-42" d="M1676.44,2442.15c5.44-238.66,41.19-432.53,41.19-432.53l-31.35,432.53Z"/><path class="cls-43" d="M2046.73,2343.57c1.64,80-153.45,68-214.56,37.44,0,0-74.05,19.61-98-29.4,0,0-.59-5.1-.8-13.25l5.26-4s29.7,16.25,70.37-.44c24.76-10.16,52.36-11.14,77.34-1.56,37.12,14.24,95.36,27.93,160.38,11.17Z"/><path class="cls-44" d="M2046.72,2343.56c-63.25,16.31-120.08,3.79-157.3-10a115.32,115.32,0,0,0-82.09,1.07c-39.82,15.57-68.7-.23-68.7-.23l-5.26,4c-.76-28.64,3.08-95.06,53.07-112.47,64.27-22.41,134,22.25,134,22.25S2045.22,2264.42,2046.72,2343.56Z"/><path class="cls-42" d="M1710.2,2455.71c-3.27-60.36,24-104.1,24-104.1,65.35-95.85,234.16-35.4,234.16-35.4s-78.67-40.81-155.21-26.54c-53.74,10-96.3,51.18-109.91,104.12a316.5,316.5,0,0,0-9.42,61.92Z"/><path class="cls-45" d="M1651.7,2342.67s-127.74,59-209.43,10-49-101.28-62.08-139.41c-8.12-23.68-32.23-60-27.36-87.22,75-10.16,101.56,39.29,160,121.69C1583.71,2347.58,1651.7,2342.67,1651.7,2342.67Z"/><path class="cls-46" d="M1651.7,2342.67s-104.17,28.82-148.66-85.23c-27.41-70.3-75.23-141.54-150.21-131.38,3-16.59,16.71-29.81,51.33-34.75C1495.64,2078.23,1671.61,2133.35,1651.7,2342.67Z"/><path class="cls-47" d="M1699.5,2423.49s-52.18-148.12-206.89-214.56c0,0,122.37,52,190.59,214.56Z"/><path class="cls-48" d="M1563.55,2427.53l-5.29,3A32.8,32.8,0,0,1,1563.55,2427.53Z"/><path class="cls-49" d="M1829.31,2430.5s-14.57,18.2-18.2,43.69l-15.47,100s-4,40.75-64.32,57.44a141.48,141.48,0,0,1-75.07,0c-60.41-16.67-64.32-57.44-64.32-57.44l-15.49-100c-3.61-25.49-18.18-43.69-18.18-43.69s59.23,19.76,64.7,97.37V2430.5l-.57-.76c42-22.85,71.38-21,71.38-21s30-1.85,72.75,21.8C1766.52,2430.5,1805.41,2413.16,1829.31,2430.5Z"/><path class="cls-50" d="M1623,2430.5v84.28a.75.75,0,0,1-1.49.1c-10.69-66.86-63.21-84.38-63.21-84.38l5.29-3c23.07-10.46,57.44,3,57.44,3,.46-.26.94-.51,1.4-.76Z"/><path class="cls-50" d="M1763.8,2430.45v81.2a1,1,0,0,0,2,.17c11.76-64.38,62.7-81.37,62.7-81.37l-5.3-3c-23.06-10.46-57.43,3-57.43,3-.46-.27-.94-.51-1.4-.76Z"/><path class="cls-15" d="M2327,1825H1972.5a199.57,199.57,0,0,1,354.48,0Z"/><path class="cls-51" d="M2349.34,1916.75c0,110.21-89.36,199.57-199.63,199.57s-199.57-89.36-199.57-199.57A198.2,198.2,0,0,1,1972.5,1825H2327A198.2,198.2,0,0,1,2349.34,1916.75Z"/><path class="cls-15" d="M2895.26,1825H2540.77a199.58,199.58,0,0,1,354.49,0Z"/><path class="cls-51" d="M2917.61,1916.75c0,110.21-89.36,199.57-199.63,199.57s-199.57-89.36-199.57-199.57a198.2,198.2,0,0,1,22.36-91.79h354.49A198.31,198.31,0,0,1,2917.61,1916.75Z"/><path class="cls-27" d="M2699.36,1934.3H1836.54a26.49,26.49,0,0,1-26.46-26.46V1772.13a5.46,5.46,0,0,1,10.92,0v135.71a15.56,15.56,0,0,0,15.54,15.54h862.82a5.46,5.46,0,1,1,0,10.92Z"/><circle class="cls-27" cx="1815.54" cy="1768.36" r="14.87"/><circle class="cls-27" cx="2193.84" cy="1928.84" r="199.58"/><circle class="cls-27" cx="2764.11" cy="1926.13" r="199.58"/><path class="cls-52" d="M2824.35,2072.22l31.74-17.6a23.41,23.41,0,0,0,9.13-31.82l-48.24-87a23.41,23.41,0,0,0-31.83-9.13l-31.74,17.6a23.41,23.41,0,0,0-9.12,31.83l48.23,87A23.41,23.41,0,0,0,2824.35,2072.22Zm-59.19-100.5a8.46,8.46,0,0,1,3.29-11.48l22.3-12.36a8.42,8.42,0,0,1,11.47,3.29l42.12,76a8.42,8.42,0,0,1-3.29,11.47l-22.3,12.36a8.45,8.45,0,0,1-11.47-3.29Z"/><path class="cls-53" d="M2767.84,2018.53l-23.54-42.46a23.42,23.42,0,0,1,9.12-31.83l31.75-17.59a23.4,23.4,0,0,1,31.82,9.12l23.54,42.46c-1-1.75-5.75-.92-10.67,1.81s-8.11,6.32-7.15,8.06l-20.48-36.94a8.43,8.43,0,0,0-11.47-3.29l-22.3,12.37a8.46,8.46,0,0,0-3.29,11.47l20.48,36.94c-1-1.75-5.74-.91-10.66,1.81S2766.87,2016.78,2767.84,2018.53Z"/><path class="cls-53" d="M2765.46,1907.23l13.66,24.64c1,1.78-2.27,5.45-7.26,8.23s-9.84,3.58-10.83,1.8l-13.66-24.64Z"/><ellipse class="cls-54" cx="2758.96" cy="1916.8" rx="10.35" ry="3.64" transform="translate(-583.38 1578.03) rotate(-29)"/><path class="cls-52" d="M2703.88,1780l-31.75,17.6a23.4,23.4,0,0,0-9.12,31.82l24.7,44.56c1,1.75,5.75.91,10.67-1.81s8.11-6.32,7.15-8.07l-21.65-39a8.42,8.42,0,0,1,3.29-11.47l22.3-12.36a8.44,8.44,0,0,1,11.47,3.29l21.65,39c1,1.75,5.74.91,10.66-1.81s8.12-6.32,7.15-8.07l-24.7-44.56A23.4,23.4,0,0,0,2703.88,1780Z"/><path class="cls-53" d="M2760.4,1833.72l23.54,42.46a23.42,23.42,0,0,1-9.12,31.83l-31.75,17.59a23.4,23.4,0,0,1-31.82-9.12L2687.71,1874c1,1.75,5.75.91,10.67-1.81s8.11-6.32,7.15-8.07l20.48,36.95a8.43,8.43,0,0,0,11.47,3.29l22.3-12.37a8.46,8.46,0,0,0,3.29-11.47l-20.48-36.94c1,1.75,5.74.91,10.66-1.81S2761.37,1835.47,2760.4,1833.72Z"/><path class="cls-3" d="M2317.33,1950.74a121.74,121.74,0,0,1-10.59,33,123.45,123.45,0,0,1-8.67,15.12v.05a127,127,0,0,1-33.78,34.1,119.28,119.28,0,0,1-14.84,8.74,124.05,124.05,0,0,1-51,13.14c-1.8.11-3.6.17-5.46.17s-3.65-.06-5.45-.17a124.14,124.14,0,0,1-51-13.14,119.28,119.28,0,0,1-14.84-8.74,127.23,127.23,0,0,1-32.79-32.73,121.31,121.31,0,0,1-9.55-16.48,123.77,123.77,0,0,1-12.44-49.49c-.11-1.8-.16-3.6-.16-5.46s.05-3.65.16-5.45a124.28,124.28,0,0,1,13.92-52.49,123.51,123.51,0,0,1,38-44.2c.82-.6,1.63-1.2,2.51-1.8a114.76,114.76,0,0,0-1.8,16.48c-.11,1.8-.17,3.6-.17,5.46s.06,3.65.17,5.45a123.6,123.6,0,0,0,12.44,49.49,120.21,120.21,0,0,0,9.54,16.48,127.3,127.3,0,0,0,32.8,32.74,119,119,0,0,0,14.84,8.73,124.22,124.22,0,0,0,51,13.15c1.8.11,3.6.16,5.46.16s3.65,0,5.45-.16a124.22,124.22,0,0,0,51-13.15,119,119,0,0,0,14.84-8.73C2317.05,1950.91,2317.22,1950.85,2317.33,1950.74Z"/><path class="cls-2" d="M2319.29,1928.86c0,1.86-.05,3.66-.16,5.46a116.67,116.67,0,0,1-1.8,16.42c-.11.11-.28.17-.39.28a119,119,0,0,1-14.84,8.73,124.22,124.22,0,0,1-51,13.15c-1.8.11-3.6.16-5.45.16s-3.66,0-5.46-.16a124.22,124.22,0,0,1-51-13.15,119,119,0,0,1-14.84-8.73,127.3,127.3,0,0,1-32.8-32.74,120.21,120.21,0,0,1-9.54-16.48,123.6,123.6,0,0,1-12.44-49.49c-.11-1.8-.17-3.6-.17-5.45s.06-3.66.17-5.46a114.76,114.76,0,0,1,1.8-16.48,116.62,116.62,0,0,1,14.89-8.89,124.46,124.46,0,0,1,51.24-13.26c1.8-.11,3.6-.16,5.45-.16s3.66.05,5.46.16a124,124,0,0,1,51.29,13.31,121.86,121.86,0,0,1,17.46,10.7,123.89,123.89,0,0,1,28.21,28.32,112.26,112.26,0,0,1,9.76,15.87,124.29,124.29,0,0,1,13.92,52.44C2319.24,1925.21,2319.29,1927,2319.29,1928.86Z"/><path class="cls-55" d="M2198.5,1802.78v252.13c-1.8.11-3.6.16-5.46.16s-3.66-.05-5.46-.16V1802.78c1.8-.11,3.61-.17,5.46-.17S2196.7,1802.67,2198.5,1802.78Z"/><path class="cls-55" d="M2136.62,2041.76a119.21,119.21,0,0,1-14.84-8.73q-4.41-12.43-7.69-24.39c-1.26-4.53-2.35-9-3.38-13.37a323.07,323.07,0,0,1-8.3-60.94c-.16-3.71-.22-7.37-.22-10.92a285.74,285.74,0,0,1,6.77-63.23c1.09-4.86,2.24-9.33,3.38-13.48v-.06c2.24-7.91,4.53-14.56,6.6-19.91a118.66,118.66,0,0,1,17.41-10.7,2.29,2.29,0,0,1-.33.88c-.16.27-5.07,9.65-10.2,26.41-1.2,4-2.46,8.4-3.66,13.2a283.18,283.18,0,0,0-7.91,66.89c0,3.55.06,7.21.22,10.92a312.41,312.41,0,0,0,9.22,64.44q1.64,6.46,3.6,13.09c2.51,8.73,5.57,17.73,9.06,26.85A5.34,5.34,0,0,1,2136.62,2041.76Z"/><path class="cls-55" d="M2283.94,1923.41c0,3.55-.11,7.21-.22,10.92a323.92,323.92,0,0,1-8,59.47h-.06c-1,4.31-2,8.68-3.27,13.09-2.29,8.52-5,17.25-8.13,26.14a119.21,119.21,0,0,1-14.84,8.73,5.89,5.89,0,0,1,.33-3c3.76-9.72,6.93-19.27,9.54-28.54,1.31-4.37,2.46-8.68,3.5-12.93a314.3,314.3,0,0,0,8.84-62.91c.16-3.71.21-7.37.21-10.92a279.94,279.94,0,0,0-7.58-65.36c-1.09-4.69-2.29-9-3.44-12.93-5.35-17.85-10.58-27.94-10.75-28.21a2.63,2.63,0,0,1-.32-.82,121.8,121.8,0,0,1,17.46,10.69,227.86,227.86,0,0,1,7,21.72c1.15,4.09,2.24,8.46,3.22,13.15A286,286,0,0,1,2283.94,1923.41Z"/><path class="cls-55" d="M2319.3,1928.87c0,1.86-.06,3.66-.16,5.46H2067c-.11-1.8-.16-3.6-.16-5.46s0-3.66.16-5.46h252.14C2319.24,1925.21,2319.3,1927,2319.3,1928.87Z"/><path class="cls-55" d="M2306.75,1983.76a124.14,124.14,0,0,1-8.68,15.11v.06c-8.73,3.11-17.29,5.73-25.64,8q-6.63,1.81-13.1,3.28a322.17,322.17,0,0,1-60.83,8c-3.5.1-6.88.16-10.21.16h-.71a284.59,284.59,0,0,1-60.29-6.44c-4.69-1-9.11-2.07-13.2-3.22a223.18,223.18,0,0,1-25.1-8.35,120.7,120.7,0,0,1-9.55-16.48,5.18,5.18,0,0,1,3.06.66c.27.16,10.36,5.46,28.21,10.8,3.92,1.15,8.29,2.35,13,3.5a280.58,280.58,0,0,0,63.89,7.52c3.55,0,7.21,0,10.92-.16a310.11,310.11,0,0,0,64.33-8.89c4.25-1,8.51-2.18,12.87-3.44h.06c9.27-2.67,18.82-5.84,28.53-9.6A6.47,6.47,0,0,1,2306.75,1983.76Z"/><path class="cls-55" d="M2305.22,1871c-.27-.06-.6-.16-.93-.27-9.11-3.5-18.06-6.5-26.79-9.06-4.47-1.31-8.84-2.51-13.2-3.6a307.67,307.67,0,0,0-65.8-9.28c-3.71-.16-7.37-.22-10.92-.16a280,280,0,0,0-65.42,7.91c-4.8,1.2-9.22,2.46-13.2,3.66-16.75,5.12-26.19,10-26.46,10.2a4.17,4.17,0,0,1-1.59.54,126.61,126.61,0,0,1,10.81-17.4,215.36,215.36,0,0,1,20.62-6.82v-.06c4.15-1.14,8.68-2.29,13.48-3.32a286,286,0,0,1,61.76-6.77c3.55,0,7.21,0,10.92.16a323,323,0,0,1,62.36,8.41c4.42,1,8.9,2.12,13.42,3.38,6.93,1.91,14,4.09,21.17,6.6A111.86,111.86,0,0,1,2305.22,1871Z"/><path class="cls-56" d="M3130.55,615.68h417.54a35.05,35.05,0,0,0,35.06-33.36c2.28-51.26-49.51-62.56-49.51-62.56-7.93-53.79-41.07-73.32-69.72-79.91a127,127,0,0,0-45.16-1.94s-28.43-92.71-137.86-75.86c-108.61,16.72-108.61,140.61-108.61,140.61-59.36,1.24-74.28,40.63-76.56,72.56-.1,1.27-.16,2.52-.22,3.76A35.12,35.12,0,0,0,3130.55,615.68Z"/><path class="cls-57" d="M3130.55,615.68h417.54a35.05,35.05,0,0,0,35.06-33.36c2.28-51.26-49.51-62.56-49.51-62.56-7.93-53.79-41.07-73.32-69.72-79.91-25,44.22-107.13,130-368.19,135.37-.1,1.27-.16,2.52-.22,3.76A35.12,35.12,0,0,0,3130.55,615.68Z"/><path class="cls-27" d="M3420.77,545.31H3373.2v70.37h-70.66V545.31H3258a6.19,6.19,0,0,1-4.19-10.81l81.38-74.27a6.25,6.25,0,0,1,8.38,0L3425,534.5A6.23,6.23,0,0,1,3420.77,545.31Z"/></g></svg>