<svg xmlns="http://www.w3.org/2000/svg" version="1.1" viewBox="0 0 3000 3000" width="3000" height="3000">
<defs/><!--ITEM: Illustration component 1--><g transform="translate(697.2222222222222 441.66666666666663) rotate(50.153795938421915 401.3888888888889 420.8333333333333)  scale(6.5168468383145495 6.504932155489776)"><svg width="123.18499999999995" height="129.389" viewBox="-1366.388 703.252 123.18499999999995 129.389"><g fill="#a1c3fc"><path d="m-1283.815 703.252-10.314 5.284h13.023z"/><path d="m-1330.206 727.014h58.576l-4.987-9.725h-34.6z"/><path d="m-1366.282 745.492h104.127l-4.987-9.725h-80.153z"/><path d="m-1361.401 763.97h108.723l-4.988-9.725h-108.722z"/><path d="m-1351.924 782.448h108.721l-4.987-9.725h-108.721z"/><path d="m-1342.449 800.926h78.184l18.987-9.725h-102.158z"/><path d="m-1332.973 819.403h32.632l18.988-9.724h-56.607z"/><path d="m-1326.185 832.641 8.756-4.485h-11.056z"/></g></svg></g><!--ITEM: Illustration component 2--><g transform="translate(766.6666666666666 905.5555555555555) rotate(-107.72761308314254 302.77777777777777 308.3333333333333)  scale(2.8243273566420664 2.833933054841966)"><svg width="214.40699999999993" height="217.601" viewBox="-1630.003 447.024 214.40699999999993 217.601"><path d="m-1415.596 530.566-90.484 134.059-123.923-83.542 90.484-134.059z" fill="#d9e021"/></svg></g><!--ITEM: Illustration component 3--><g transform="translate(1758.3333333333333 766.6666666666666) rotate(-10.246325137449922 297.2222222222223 297.22222222222223)  scale(48.242529170949894 48.24252917094989)"><svg width="12.321999999999889" height="12.322000000000003" viewBox="-1373.77 605.694 12.321999999999889 12.322000000000003"><circle cx="-1367.609" cy="611.855" fill="#d9e021" r="6.161"/></svg></g><!--ITEM: Illustration component 4--><g transform="translate(297.22222222222223 430.55555555555554) rotate(0.0 976.3888888888889 1230.5555555555554)  scale(8.987792966252947 8.97279157926803)"><svg width="217.27" height="274.286" viewBox="0.0 0.0 217.27 274.286"><linearGradient id="a-i4" gradientTransform="matrix(1 0 0 -1 0 276)" gradientUnits="userSpaceOnUse" x1="140.791" x2="155.087" y1="108.976" y2="108.976"><stop offset="0" stop-color="#a1c3fc" fill="#000000"/><stop offset="1" stop-color="#8ab8fd" fill="#000000"/></linearGradient><linearGradient id="b-i4" gradientTransform="matrix(.9998 .0201 .0201 -.9998 -6.3023 280.1519)" gradientUnits="userSpaceOnUse" x1="106.1256" x2="60.9974" y1="160.2328" y2="141.8472"><stop offset="0" stop-color="#ffbeb6" fill="#000000"/><stop offset="1" stop-color="#f2a19c" fill="#000000"/></linearGradient><g fill="#f8afa9"><path d="m144.646 137.239c7.885-2.187 14.482-7.236 22.461-9.329 4.966-1.304 6.621 1.356 10.852 4.178 6.314 4.212 12.83 8.797 18.939 13.371 3.422 2.562 6.371 4.275 2.555 7.912-2.304 2.195-6.527 3.297-9.496 3.77-7.853 1.249-12.825-1.586-19.125-5.852-1.229-.832-3.569-3.071-4.926-3.084-2.098-.019-4.481 3.026-5.89 4.296-2.992 2.697-7.06 8.5-11.278 9.391-2.976.628-2.502-.06-3.052-3.176-.421-2.39-.781-4.697-1.295-7.087-1.079-5.019-.679-8.582-.127-13.558.376-.109-.005-.921.382-.832z"/><path d="m149.597 81.061c16.43 1.962 33.687 1.528 50.191 2.366 2.916.148 13.555.602 14.252 3.551 2.072 8.774-18.019 15.757-25.007 15.175-14.07-1.172-28.365-2.592-42.706-2.739.006-3.047.633-6.095 1.228-9.041.554-2.738 2.303-6 2-8.72.325-.227-.204-1.072.042-.592z"/><path d="m111.457 79.852c12.849-3.901 21.576-17.841 33.645-23.489 5.784-2.707 13.913-.981 19.987-.373 7.443.745 15.111.852 22.697.861 3.665.004 7.519-.67 11.328-.87 3.624-.19 7.211-1.159 8.304 2.739 1.872 6.678-5.237 12.939-10.26 15.948-6.567 3.933-12.712 4.714-20.358 4.715-6.06.001-13.988-3.738-19.949-2.298-4.372 1.056-8.961 7.41-12.504 10.086-4.734 3.575-9.018 6.7-13.216 10.757-5.332 5.154-12.566 8.565-16.063.003-1.993-4.878-9.858-16.182-3.611-18.079z"/><path d="m111.251 104.984c13.325 1.664 26.968-7.52 40.291-7.77 6.385-.119 13.109 4.763 18.41 7.791 6.496 3.708 13.457 6.926 20.384 10.02 3.346 1.494 7.141 2.446 10.703 3.814 3.388 1.301 7.059 1.875 6.471 5.88-1.007 6.862-10.047 9.689-15.861 10.394-7.599.921-13.53-.865-20.516-3.975-5.537-2.465-11.257-9.105-17.289-10.215-4.424-.814-11.201 3.124-15.526 4.127-5.78 1.339-10.963 2.452-16.449 4.45-6.967 2.538-14.964 2.712-14.675-6.533.166-5.267-2.421-18.792 4.057-17.983z"/></g><path d="m93.333 103.903c5.407-3.241 6.847-13.045 9.917-18.073 3.268-5.351 6.218-11.462 10.4-16.244 9.871-11.288 24.161 6.996 31.683 12.91 11.378 8.947 5.014 16.92 16 26.406 4.48 3.868 11.932 15.579 12 22 .07 6.564-8.489 22.544-12.667 27.333-9.096 10.427-5.685 12.077-18.333 17.916-12.167 5.617-21.93 12.091-30.642 22.394-4.907 5.803-9.147 12.171-12.603 18.941-2.888 5.658-34.485 52.571-39.473 56.753-1.956 1.642-54.291-41.327-59.615-46.003 10.578-7.268 53.991-48.588 56.684-61.983 1.448-7.204.32-14.41 3.649-21.276 3.696-7.622 8.497-15.045 13-22.24 5.051-8.07 13.528-14.553 21.466-19.713-.488.293-.977.586-1.466.879z" fill="#f2a19c"/><path d="m178.336 177.385h-62.038c-6.356 0-11.509-5.153-11.509-11.509v-154.367c0-6.356 5.153-11.509 11.51-11.509h62.038c6.356 0 11.509 5.153 11.509 11.509v154.366c0 6.357-5.153 11.51-11.51 11.51z" fill="#c1d7fd"/><circle cx="135.097" cy="11.139" fill="#a1c3fc" r="2.014"/><path d="m178.336 0h-11.909c-.611.38-1.211.77-1.799 1.164-15.603 10.446-29.024 25.236-34.245 43.273-2.105 7.27-2.834 14.861-4.434 22.259-3.664 16.939-11.827 32.574-21.16 47.185v51.995c0 6.356 5.153 11.509 11.509 11.509h62.038c6.356 0 11.509-5.153 11.509-11.509v-154.367c.001-6.356-5.152-11.509-11.509-11.509z" fill="#a1c3fc"/><circle cx="147.939" cy="167.024" fill="url(#a-i4)" r="7.148"/><path d="m140.663 9.642h14.438v2.483h-14.438z" fill="#a1c3fc" transform="matrix(-.9923 .1238 -.1238 -.9923 295.9735 3.3745)"/><path d="m108.158 20.081h78.319v137.4h-78.319z" fill="#fff"/><circle cx="147.096" cy="166.182" fill="#c1d7fd" r="5.463"/><path d="m153.142 11.019h-11.772c-.233 0-.421-.189-.421-.421 0-.233.188-.421.421-.421h11.773c.233 0 .421.189.421.421 0 .233-.189.421-.422.421z" fill="#428dfc"/><path d="m84.877 61.566c-2.565 3.199-1.188 11.011-1.231 12.358-.694 21.604-18.32 36.169-22.127 47.585-7.962 23.881-7.35 50.801 13.811 67.7 6.911 5.519 19.707 9.755 25.355-2.126 9.399-19.773.699-44.446-1.374-48.562-2.614-5.192-2.736-10.592-6.416-14.722 4.525-13.662 12.994-21.017 11.899-33.086-.568-6.263-.721-13.187-3.359-19.08-2.285-5.106-4.225-11.377-9.929-12.333-4.07-.683-6.629 2.266-6.629 2.266z" fill="url(#b-i4)"/><path d="m94.696 163.886c-.011.153.106.285.259.296.152.01.286-.106.297-.258.011-.153-.106-.285-.259-.296-.154-.009-.285.106-.297.258zm6.796.402c-.005.158.112.293.268.313.155.002.283-.12.288-.274.019-.143-.082-.276-.227-.295-.01-.002-.02-.002-.033-.002-.153-.011-.285.106-.296.258zm2.661 26.471c-.12.102-.133.283-.03.401.091.112.255.129.365.038.01-.006.019-.015.027-.026.117-.097.134-.267.04-.385-.103-.119-.283-.131-.402-.028zm-2.27-39.739c-.066.134-.012.298.122.366.135.066.298.012.366-.123.069-.134.012-.298-.122-.366-.124-.071-.283-.027-.354.098-.005.009-.009.016-.012.025zm-1.642 25.822c-.144.062-.218.22-.176.369.053.151.219.228.37.176.151-.053.23-.218.176-.369-.062-.144-.222-.218-.37-.176zm6.438-2.223c-.144.054-.214.216-.16.36.038.143.185.229.329.191.007-.003.015-.004.023-.007.147-.057.224-.218.176-.369-.06-.142-.219-.218-.368-.175zm-25.788-45.165c-.147.25-.064.575.188.723.004.004.011.005.016.009.249.144.57.058.714-.191.001-.001 0-.002.001-.004.147-.25.064-.575-.188-.723-.004-.004-.011-.005-.016-.009-.249-.144-.57-.058-.714.191-.002.001-.002.001-.001.004zm11.199 6.394c-.147.257-.061.584.196.735.258.15.585.061.736-.197.001-.004.004-.004.005-.009.144-.249.058-.569-.19-.712-.001-.001-.002 0-.004-.001-.26-.146-.586-.064-.743.184zm-28.996 40.802c-.283.083-.447.376-.37.66.066.277.341.448.616.385.01-.003.019-.003.028-.007.283-.083.447-.376.37-.661-.075-.281-.362-.45-.644-.377zm24.926-6.775c-.282.075-.448.36-.374.642.001.005.003.012.006.017.066.277.341.448.616.385.01-.003.019-.003.028-.007.284-.089.452-.379.388-.669-.087-.281-.38-.446-.664-.368zm12.451-3.392c-.284.079-.451.376-.37.66.079.285.376.449.66.369.283-.073.452-.361.379-.643-.072-.286-.361-.462-.649-.391-.007.001-.014.004-.02.005zm-33.529-17.126c-.029.291.185.549.477.577.292.029.55-.185.578-.477.028-.286-.178-.54-.463-.574-.292-.028-.556.182-.592.474zm12.812 1.63c-.029.291.185.549.477.577.292.029.55-.185.578-.477.028-.286-.178-.54-.463-.574-.292-.03-.555.181-.592.474zm12.798 1.637c-.029.298.19.562.488.591.287.028.547-.173.591-.458.046-.296-.158-.571-.455-.618-.296-.046-.573.159-.619.454-.004.013-.005.022-.005.031zm-12.865 44.094c-.229.185-.27.519-.086.753.173.23.502.272.731.099.001-.001.003-.002.004-.003.234-.158.294-.476.137-.71-.008-.011-.015-.021-.024-.034-.188-.227-.519-.271-.762-.105zm20.447-15.772c-.227.167-.279.486-.112.714.004.006.009.014.016.019.17.238.502.29.74.12.008-.005.015-.01.022-.015.233-.184.273-.519.091-.752-.184-.233-.521-.272-.752-.09-.002.002-.004.004-.005.004zm-31.248-44.087c-.057.255.102.508.355.569.254.059.509-.1.57-.355.06-.256-.1-.509-.355-.569-.255-.057-.508.101-.57.355zm11.24 2.54c-.057.255.102.508.355.569.253.067.514-.084.581-.337s-.083-.513-.337-.58c-.009-.003-.02-.004-.029-.007-.248-.063-.501.088-.566.336-.001.005-.001.012-.004.019zm11.445 2.264c-.105.055-.18.157-.202.276-.057.255.102.508.355.569.262.061.522-.097.587-.359 0-.002 0-.002.001-.005.036-.154-.006-.318-.115-.435l-.009-.017c-.058-.068-.141-.11-.232-.116-.137-.039-.283-.006-.385.087zm-14.278 42.633c-.221.152-.285.446-.148.675.135.216.417.281.634.148.006-.004.011-.008.018-.012.225-.135.297-.427.161-.649-.002-.003-.003-.004-.005-.008-.146-.214-.434-.283-.66-.154zm19.512-12.275c-.225.135-.297.427-.163.652.002.003.004.005.005.008.123.214.399.286.612.163.013-.007.026-.015.038-.025.225-.135.297-.427.163-.652-.002-.003-.004-.005-.005-.008-.147-.211-.432-.271-.65-.138zm9.733-6.136c-.22.149-.279.447-.13.666.143.214.431.275.651.138.215-.145.284-.431.157-.658-.151-.22-.448-.284-.678-.146zm-32.413-6.619c-.257.053-.425.301-.379.558.044.256.285.429.541.385.258-.049.436-.289.405-.549-.051-.261-.302-.439-.567-.394zm11.37-1.94c-.25.033-.427.264-.393.513.001.008.004.019.004.027.044.256.285.429.541.385.258-.049.436-.289.405-.549-.051-.255-.3-.423-.557-.376zm11.36-1.955c-.257.045-.426.289-.382.544.045.252.283.424.537.383.256-.041.433-.281.394-.539-.041-.258-.28-.432-.539-.393-.003.003-.005.004-.01.005zm6.833 32.132c-.151.216-.104.514.109.672.222.146.521.089.67-.134.14-.212.094-.495-.105-.649-.205-.156-.501-.118-.658.085-.006.012-.012.019-.016.026zm-8.077-30.918c-.144.054-.214.216-.16.36.054.143.217.214.36.16s.214-.216.16-.36c-.054-.145-.216-.215-.36-.16zm6.335-2.469c-.143.065-.208.231-.15.378.054.143.217.214.36.16.139-.047.214-.2.166-.34-.003-.007-.004-.012-.008-.02-.051-.148-.213-.227-.362-.179-.002 0-.004-.001-.006.001zm-5.354-11.829c.007.151.124.273.275.287.15.008.28-.11.288-.262.001-.005 0-.01 0-.016.01-.148-.101-.275-.249-.286-.01 0-.018-.001-.026 0-.156-0-.285.122-.288.277zm9.302 24.1c-.113.105-.118.28-.013.391.106.113.28.118.394.012.113-.091.13-.255.039-.365-.006-.009-.016-.019-.026-.027-.1-.112-.275-.119-.386-.019-.004.003-.005.005-.008.008zm-17.751-40.581c-.04.164.061.331.226.371.002 0 .005.002.009.003.167.046.339-.052.386-.218.001-.008.003-.017.006-.025.04-.164-.061-.331-.226-.371-.002 0-.005-.002-.009-.003-.176-.037-.348.07-.392.243zm5.308 32.013c-.145.079-.197.261-.119.404.005.011.013.021.021.032.094.147.289.191.436.099.144-.099.194-.289.115-.446-.098-.151-.3-.191-.453-.089.003-.003.003-.003 0 0zm6.601-4.085c-.151.1-.192.3-.09.452l.001.001c.094.147.289.191.436.099.144-.099.194-.289.115-.446-.103-.149-.302-.194-.462-.106zm-8.481-12.071c-.013.044-.018.09-.015.136.025.171.187.289.359.263.003-.001.005-.001.011-.001.17-.03.286-.183.27-.351l-.009-.017c-.025-.171-.187-.289-.359-.263-.003.001-.008.001-.011.001-.125.017-.222.11-.246.232zm15.396 25.267c-.104.142-.071.341.071.444.004.001.006.006.009.005.14.099.335.067.435-.073.108-.13.092-.321-.038-.431-.006-.006-.01-.008-.017-.014-.146-.104-.349-.075-.46.069zm-49.717-26.261c-.297.066-.49.352-.44.654.054.298.337.497.635.446.298-.064.494-.353.44-.654-.053-.299-.335-.498-.635-.446zm13.101-2.376c-.299.053-.498.336-.447.635.051.298.337.497.635.446.299-.053.498-.336.447-.635-.052-.297-.336-.496-.635-.446zm13.092-2.392c-.298.064-.494.353-.44.653.064.295.355.483.65.419.294-.062.484-.355.421-.649-.059-.287-.34-.476-.631-.423zm11.373 41.08c-.167.25-.109.588.136.765.25.174.592.114.767-.136.175-.249.114-.591-.136-.765-.25-.17-.59-.11-.767.136zm7.581-10.927c-.169.25-.111.59.136.765.259.169.602.105.784-.146.166-.26.089-.602-.167-.767-.251-.155-.581-.091-.753.148zm-18.906-10.165c-.258.168-.332.511-.166.768 0 0 0 0 .001.001.162.248.496.317.743.154.257-.158.336-.494.178-.75-.158-.258-.494-.335-.751-.177-.001-0-.004.002-.005.004zm11.185-7.202c-.254.156-.335.488-.179.742l.006.009c.159.262.5.347.764.188.262-.159.348-.499.189-.763-.159-.262-.5-.347-.764-.188-.006.005-.012.009-.016.012zm-17.646 1.507c-.262.159-.347.499-.19.761.156.252.485.338.745.197.261-.163.351-.499.206-.77-.162-.254-.496-.338-.761-.188zm11.438-6.708c-.262.159-.347.499-.19.761.151.26.486.349.745.197.26-.151.35-.485.199-.745-.153-.259-.486-.354-.754-.213zm-11.833-16.849c-.296.045-.498.32-.458.614.001.001-.001.003.001.003.037.301.309.514.61.48.302-.047.511-.326.474-.628-.051-.297-.327-.503-.627-.469zm13.148-1.822c-.3.035-.512.31-.477.609s.309.511.609.476c.003-.001.008-.001.014-.003.299-.05.508-.326.474-.628-.043-.296-.32-.498-.615-.457-.002.004-.002.004-.005.003zm-1.347 47.76c-.178.248-.126.594.118.775.24.178.581.131.759-.11.188-.228.155-.565-.074-.752-.006-.006-.011-.011-.02-.015-.238-.19-.584-.151-.773.088-.004.005-.006.009-.01.014zm8.003-10.564c-.178.248-.126.594.118.775.24.178.581.131.759-.11.188-.228.155-.565-.074-.752-.006-.006-.011-.011-.02-.015-.238-.19-.586-.15-.773.088-.002.005-.006.01-.01.014zm-9.135-12.38c-.167.156-.178.417-.022.586.152.163.405.176.574.031.166-.14.189-.391.051-.558-.008-.011-.019-.022-.029-.031-.153-.162-.408-.173-.574-.028zm7.37-6.728c-.169.156-.177.422-.021.589s.422.176.589.02c.168-.151.182-.411.031-.578-.003-.004-.006-.006-.01-.011-.158-.164-.418-.173-.589-.02zm-13.401-13.583c-.211.081-.319.319-.242.53.09.206.318.31.532.241.213-.078.323-.314.245-.527-.001-.001-.001-.001-.001-.003-.07-.207-.295-.321-.504-.253-.012.005-.02.008-.03.012zm9.409-3.42c-.215.083-.328.32-.259.54.078.213.314.322.528.244.001-.001.001-.001.003-.001.21-.069.324-.291.257-.501-.001-.005-.004-.009-.006-.014-.069-.217-.299-.338-.517-.27-.002.001-.004.001-.006.002z" fill="#fff" opacity=".51"/></svg></g><!--ITEM: Illustration component 5--><g transform="translate(1236.111111111111 336.1111111111111) rotate(0.0 409.7222222222223 845.8333333333333)  scale(3.4585930209110054 3.4535086286678642)"><svg width="236.93" height="489.84" viewBox="0.0 0.0 236.93 489.84"><linearGradient id="a-i5" gradientUnits="userSpaceOnUse" x2="236.93" y1="244.92" y2="244.92"><stop offset="0" stop-color="#a1c3fc" fill="#000000"/><stop offset="1" stop-color="#78a9ef" fill="#000000"/></linearGradient><linearGradient xmlns:xlink="http://www.w3.org/1999/xlink" id="b-i5" x1="8.88" x2="228.04" xlink:href="#a-i5" y1="245.16" y2="245.16"/><path d="m204.87 489.84h-172.81a31.92 31.92 0 0 1 -32.06-31.78v-426.28a31.92 31.92 0 0 1 32.06-31.78h172.81a31.93 31.93 0 0 1 32.06 31.78v426.28a31.93 31.93 0 0 1 -32.06 31.78z" fill="url(#a-i5)"/><path d="m9.38 55.45h218.16v379.42h-218.16z" fill="#fff" stroke="url(#b)" stroke-miterlimit="10"/><ellipse cx="117.85" cy="458.9" fill="#c1d7fd" rx="15.22" ry="15.09"/><path d="m134.69 30.43h-32.79a1.17 1.17 0 1 1 0-2.33h32.79a1.17 1.17 0 1 1 0 2.33z" fill="#428dfc"/><ellipse cx="84.56" cy="30.08" fill="#428dfc" rx="3.85" ry="3.82"/><g fill="none"><path d="m48.57 125.37 32.14-32.15-32.45 31.85z"/><path d="m171.34 258.15-2.93-3.02-125.85-123.75-8.28 8.27 166.5 166.5 9.68-9.68-39.05-38.39z"/><path d="m34.28 139.65 8.28-8.27-.36-.36-26.46 25.98 168.35 165.54 26.47-25.97-.1-.1-9.68 9.68z"/><path d="m55.49 367.17 41.53 40.83 81.01-79.5-41.37-40.69z"/></g><path d="m226.65 126.55-41.47-40.77 30.46-29.78h-12.15l-24.36 23.82-24.23-23.82h-12.11l83.86 82.46z" fill="#eee"/><path d="m216.46 290.46-6 6 .1.1-26.47 26-168.35-165.56 57.82-56.76 118.1 116.13 2.93 3 .07-.07 32 31.45v-11.89l-25.91-25.47 25.91-25.34v-11.88l-32 31.26-115.04-113.14 1.09-1.07 37.93-37.22h-18.19l-90.36 88.69v18.66l41.57 40.88-41.57 40.65v11.88l47.63-46.57 72.88 71.66-81.16 79.36-39.35-38.69v11.91l33.27 32.72-33.27 32.54v11.88l39.33-38.46 41.58 40.89-20.79 20.33h18.19l98.72-96.9 39.53 38.87v-11.91l-33.47-32.91 33.47-32.85v-17.85l-10 9.84zm-119.46 117.54-41.51-40.83 81.17-79.36 41.34 40.68z" fill="#eee"/></svg></g><!--ITEM: Illustration component 6--><g transform="translate(1319.4444444444443 766.6666666666666) rotate(0.0 326.3888888888889 415.27777777777777) translate(0.0 0.0) scale(4.395809951365507 4.385656117623591)"><svg width="148.5" height="189.38" viewBox="0.0 0.0 148.5 189.38"><path d="m3.498 70c-.768 0-1.539-.25-2.185-.767-1.51-1.208-1.754-3.41-.547-4.919 2.04-2.548 55.576-49.212 71.936-63.454 1.333-1.162 3.324-1.145 4.64.039l70 63c1.437 1.293 1.553 3.506.26 4.943-1.294 1.438-3.506 1.554-4.943.26l-67.697-60.927c-27.221 23.706-66.353 57.962-68.782 60.577-.689.822-1.682 1.248-2.682 1.248z" fill="#a1c3fc"/><path d="m8.361 66.5 66.639-59 66.64 59z" fill="#d0e1fd"/><path d="m15.771 64.789h120.841v124.591h-120.841z" fill="#d0e1fd"/><g fill="#a1c3fc"><path d="m44.05 73.5h25.8v25.8h-25.8z"/><path d="m85.5 54.5h-17.666v-15.333c0-4.879 3.955-8.833 8.833-8.833 4.879 0 8.833 3.955 8.833 8.833z"/><path d="m85.15 73.5h25.8v25.8h-25.8z"/><path d="m44.05 107.1h25.8v25.8h-25.8z"/><path d="m85.15 107.1h25.8v25.8h-25.8z"/><path d="m44.05 140.7h25.8v25.8h-25.8z"/><path d="m85.15 140.7h25.8v25.8h-25.8z"/></g></svg></g><!--ITEM: Illustration component 7--><g transform="translate(1630.5555555555554 1222.2222222222222) rotate(13.07857616627955 315.2777777777777 218.05555555555554)  scale(3.1527777777777772 3.1602254428341383)"><svg width="200.0" height="138.0" viewBox="0.0 0.0 200.0 138.0"><linearGradient id="a-i7" gradientUnits="userSpaceOnUse" x1="99.99998632" x2="99.99998632" y1="27.32402217" y2="176.51438349"><stop offset=".1291" stop-color="rgb(233,74,71)" fill="#000000"/><stop offset=".9987" stop-color="rgb(196,47,35)" fill="#000000"/></linearGradient><path d="m0 37.852 61.538 100.148h50.888l87.574-138h-59.172l-58.382 95.023-35.898-57.171z" fill="url(#a-i7)"/></svg></g><!--ITEM: Illustration component 8--><g transform="translate(2372.222222222222 655.5555555555555) rotate(-14.768342602901622 100.0 100.0)  scale(9.399821403393336 9.390553103577801)"><svg width="21.277000000000044" height="21.298000000000002" viewBox="-1850.167 415.745 21.277000000000044 21.298000000000002"><g fill="#a1c3fc"><path d="m-1830.465 420.771-19.515 3.632c-.122.645-.187 1.309-.187 1.989 0 .577.047 1.144.136 1.697l20.943-3.899c-.26-1.231-.732-2.383-1.377-3.419z"/><path d="m-1839.368 415.745-4.129.768c-2.255.91-4.125 2.566-5.306 4.664l16.078-2.993c-1.808-1.498-4.12-2.405-6.643-2.439z"/><path d="m-1832.663 434.547-10.311 1.919c1.086.373 2.249.577 3.46.577 2.61.001 4.999-.939 6.851-2.496z"/><path d="m-1828.89 427.162-20.262 3.772c.579 1.225 1.384 2.322 2.363 3.237l16.871-3.14c.572-1.185.93-2.491 1.028-3.869z"/></g></svg></g></svg>